<?xml version="1.0" encoding="utf-8"?>
<!-- Generator: Adobe Illustrator 19.0.0, SVG Export Plug-In . SVG Version: 6.00 Build 0)  -->
<svg version="1.1" id="Capa_1" xmlns="http://www.w3.org/2000/svg" xmlns:xlink="http://www.w3.org/1999/xlink" x="0px" y="0px"
	 viewBox="-351 227.3 139 141" style="enable-background:new -351 227.3 139 141;" xml:space="preserve">
<style type="text/css">
	.st0{clip-path:url(#SVGID_2_);fill:#ECECEC;}
	.st1{clip-path:url(#SVGID_4_);fill:#676363;}
	.st2{clip-path:url(#SVGID_6_);fill:#676363;}
	.st3{clip-path:url(#SVGID_8_);fill:#676363;}
	.st4{clip-path:url(#SVGID_10_);fill:#979592;}
	.st5{clip-path:url(#SVGID_12_);fill:#979592;}
	.st6{clip-path:url(#SVGID_14_);fill:#979592;}
	.st7{clip-path:url(#SVGID_16_);fill:#979592;}
	.st8{clip-path:url(#SVGID_18_);fill:#D28044;}
	.st9{clip-path:url(#SVGID_20_);fill:#87512A;}
	.st10{clip-path:url(#SVGID_22_);fill:#A0622F;}
	.st11{clip-path:url(#SVGID_24_);fill:#EFCEAE;}
	.st12{clip-path:url(#SVGID_26_);}
	.st13{clip-path:url(#SVGID_29_);}
	.st14{clip-path:url(#SVGID_30_);fill:#5D8BCE;}
	.st15{clip-path:url(#SVGID_30_);fill:#8797AB;}
	.st16{clip-path:url(#SVGID_32_);}
	.st17{clip-path:url(#SVGID_36_);}
	.st18{clip-path:url(#SVGID_37_);}
	.st19{clip-path:url(#SVGID_38_);fill:#A79E73;}
	.st20{clip-path:url(#SVGID_38_);fill:#9B9294;}
	.st21{clip-path:url(#SVGID_38_);fill:#8A8055;}
	.st22{clip-path:url(#SVGID_40_);fill:#12110B;}
	.st23{clip-path:url(#SVGID_42_);fill:#12110B;}
	.st24{clip-path:url(#SVGID_44_);fill:#494644;}
	.st25{clip-path:url(#SVGID_46_);fill:#494644;}
	.st26{clip-path:url(#SVGID_48_);fill:#494644;}
	.st27{clip-path:url(#SVGID_50_);fill:#494644;}
	.st28{clip-path:url(#SVGID_52_);fill:#997340;}
	.st29{clip-path:url(#SVGID_54_);fill:#12110B;}
	.st30{clip-path:url(#SVGID_56_);fill:#12110B;}
	.st31{clip-path:url(#SVGID_58_);fill:#474544;}
	.st32{clip-path:url(#SVGID_60_);fill:#474544;}
	.st33{clip-path:url(#SVGID_62_);fill:#474544;}
	.st34{clip-path:url(#SVGID_64_);fill:#474544;}
	.st35{clip-path:url(#SVGID_66_);}
	.st36{clip-path:url(#SVGID_68_);fill:#EDEDED;}
	.st37{clip-path:url(#SVGID_70_);fill:#9D9D9C;}
	.st38{clip-path:url(#SVGID_72_);fill:#555150;}
	.st39{clip-path:url(#SVGID_74_);fill:#12110B;}
	.st40{clip-path:url(#SVGID_76_);fill:#D6D3D3;}
	.st41{clip-path:url(#SVGID_78_);fill:#D6D3D3;}
	.st42{clip-path:url(#SVGID_80_);fill:#12110B;}
	.st43{clip-path:url(#SVGID_82_);fill:#B7B5AE;}
	.st44{clip-path:url(#SVGID_84_);fill:#B7B5AE;}
	.st45{clip-path:url(#SVGID_86_);fill:#592F12;}
	.st46{fill:none;stroke:#ECECEC;stroke-miterlimit:10;}
</style>
<g>
	<g>
		<defs>
			<circle id="SVGID_1_" cx="-281.5" cy="298.6" r="56"/>
		</defs>
		<clipPath id="SVGID_2_">
			<use xlink:href="#SVGID_1_"  style="overflow:visible;"/>
		</clipPath>
		<circle id="XMLID_6784_" class="st0" cx="-281.5" cy="298.6" r="56"/>
	</g>
	<g>
		<defs>
			<circle id="SVGID_3_" cx="-281.5" cy="298.6" r="56"/>
		</defs>
		<clipPath id="SVGID_4_">
			<use xlink:href="#SVGID_3_"  style="overflow:visible;"/>
		</clipPath>
		<path id="XMLID_6783_" class="st1" d="M-323.5,378c0.7-0.6,1.8-0.7,2.6-0.4c3.8,1.5,7.6,3,11.4,4.4c0.8,0.3,1.5,1,1.7,1.9
			c-0.1,0.6-0.4,1.2-0.6,1.8c-0.8,0.5-1.7,0.7-2.6,0.3c-3.6-1.4-7.2-2.8-10.9-4.2c-1-0.3-1.9-0.9-2.2-2
			C-324,379.2-323.8,378.6-323.5,378z"/>
	</g>
	<g>
		<defs>
			<circle id="SVGID_5_" cx="-281.5" cy="298.6" r="56"/>
		</defs>
		<clipPath id="SVGID_6_">
			<use xlink:href="#SVGID_5_"  style="overflow:visible;"/>
		</clipPath>
		<path id="XMLID_6781_" class="st2" d="M-324.2,433.8c0.4,0.2,0.8,0,1.1-0.2c-0.1,0.8-0.4,1.7-1.2,2.2c-1.3,1-3.5,0.3-4-1.3
			c-0.3-0.7-0.1-1.5,0.1-2.2C-326.9,432.8-325.6,433.4-324.2,433.8z"/>
	</g>
	<g>
		<defs>
			<circle id="SVGID_7_" cx="-281.5" cy="298.6" r="56"/>
		</defs>
		<clipPath id="SVGID_8_">
			<use xlink:href="#SVGID_7_"  style="overflow:visible;"/>
		</clipPath>
		<path id="XMLID_6780_" class="st3" d="M-341.6,426.9c1.7,0.6,3.3,1.3,5,2c-0.3,0.8-0.8,1.7-1.7,2c-1.4,0.6-3.1-0.2-3.6-1.6
			C-342.2,428.5-341.9,427.6-341.6,426.9z"/>
	</g>
	<g>
		<defs>
			<circle id="SVGID_9_" cx="-281.5" cy="298.6" r="56"/>
		</defs>
		<clipPath id="SVGID_10_">
			<use xlink:href="#SVGID_9_"  style="overflow:visible;"/>
		</clipPath>
		<path id="XMLID_6778_" class="st4" d="M-307.8,383.9c0.8,0.3,1.6,0.6,2.1,1.3c0.8,1,1.4,2.5,0.8,3.7c-2.3,6-4.6,12-6.9,17.9
			c-0.5,1.1-0.7,2.3-1.3,3.3c0.5-1.6,1-3.3,1.2-4.9c0.1-0.7-0.2-1.5-0.6-2.1c1.9-4.4,3.5-8.9,5.3-13.4c0.3-0.7,0.6-1.4,0.5-2.2
			c-0.1-0.9-1-1.4-1.6-1.9C-308.1,385.1-307.9,384.5-307.8,383.9z"/>
	</g>
	<g>
		<defs>
			<circle id="SVGID_11_" cx="-281.5" cy="298.6" r="56"/>
		</defs>
		<clipPath id="SVGID_12_">
			<use xlink:href="#SVGID_11_"  style="overflow:visible;"/>
		</clipPath>
		<path id="XMLID_6777_" class="st5" d="M-328.1,380.6c0.6-1.8,2.7-3.1,4.5-2.6c-0.3,0.6-0.4,1.2-0.6,1.9c-0.6,0.2-1.3,0.3-1.7,0.9
			c-0.7,0.9-1,2.1-1.4,3.1c-1.3,3.2-2.5,6.5-3.8,9.7c-0.6-0.2-1.2-0.5-1.8-0.7C-331.2,388.8-329.6,384.7-328.1,380.6z"/>
	</g>
	<g>
		<defs>
			<circle id="SVGID_13_" cx="-281.5" cy="298.6" r="56"/>
		</defs>
		<clipPath id="SVGID_14_">
			<use xlink:href="#SVGID_13_"  style="overflow:visible;"/>
		</clipPath>
		<path id="XMLID_6775_" class="st6" d="M-348.9,424.1c1.6,0.6,3.3,1.3,4.9,1.9c-0.3,0.9-0.7,1.7-1.6,2.1c-1.4,0.7-3.4-0.3-3.7-1.8
			C-349.5,425.5-349.2,424.8-348.9,424.1z"/>
	</g>
	<g>
		<defs>
			<circle id="SVGID_15_" cx="-281.5" cy="298.6" r="56"/>
		</defs>
		<clipPath id="SVGID_16_">
			<use xlink:href="#SVGID_15_"  style="overflow:visible;"/>
		</clipPath>
		<path id="XMLID_6774_" class="st7" d="M-335.2,429.5c1.5,0.6,3,1.3,4.6,1.9l0.3,0.1c-0.3,0.8-0.7,1.7-1.5,2
			c-1.3,0.7-3.2,0-3.6-1.4C-335.8,431.3-335.5,430.3-335.2,429.5z"/>
	</g>
	<g>
		<defs>
			<circle id="SVGID_17_" cx="-281.5" cy="298.6" r="56"/>
		</defs>
		<clipPath id="SVGID_18_">
			<use xlink:href="#SVGID_17_"  style="overflow:visible;"/>
		</clipPath>
		<path id="XMLID_6771_" class="st8" d="M-334.4,392.4c0.6,0.1,1.1,0.3,1.6,0.5c0.6,0.2,1.2,0.5,1.8,0.7c5.1,1.8,10,3.8,15,5.7
			c0.9,0.3,1.7,0.9,2.1,1.7c-1.9,1.7-4,3.3-5.7,5.3c-1.9,2.1-3.8,4.3-5.3,6.7c-0.4,0.7-0.9,1.4-1.4,2.1c-1.4-0.2-2.7-0.7-4.1-1.2
			c0,0.1-0.1,0.4-0.2,0.5c0.1-0.7,0.3-1.8-0.6-2.2c-0.6-0.3-1.2,0.2-1.5,0.7c-3.5-1.3-7-2.7-10.4-4c0-0.6-0.1-1.4-0.8-1.6
			c-0.6-0.2-1.1,0.3-1.4,0.8c-1-0.4-2-0.8-3-1.1c0.7-2.1,1.9-3.9,3.2-5.7c1-1.5,2.2-2.9,3.5-4.1c1.4-1.4,2.9-2.7,4.6-3.8
			C-336.1,392.9-335.3,392.4-334.4,392.4z"/>
	</g>
	<g>
		<defs>
			<circle id="SVGID_19_" cx="-281.5" cy="298.6" r="56"/>
		</defs>
		<clipPath id="SVGID_20_">
			<use xlink:href="#SVGID_19_"  style="overflow:visible;"/>
		</clipPath>
		<path id="XMLID_6769_" class="st9" d="M-313.8,401c0.4,0.7,0.8,1.4,1.2,2.1c0.4,0.6,0.6,1.3,0.6,2.1c-0.1,1.7-0.7,3.3-1.2,4.9
			c-1.4,4-2.9,8-4.5,12c-1,2.6-1.9,5.2-3.3,7.6c-0.6,1.4-1.3,2.7-2.1,3.9c-0.3,0.2-0.7,0.3-1.1,0.2c-1.4-0.4-2.6-1-4-1.5
			c-0.7-0.3-1.4-0.5-2.1-0.8l-0.3-0.1c0.1-1.8,0.2-3.6,0.6-5.3c0.7-2.6,1.5-5.3,2.5-7.8c0.4-1.1,0.8-2.2,1.4-3.2
			c0.4-0.7,0.9-1.4,1.4-2.1c1.5-2.4,3.4-4.6,5.3-6.7C-317.8,404.3-315.7,402.7-313.8,401z"/>
	</g>
	<g>
		<defs>
			<circle id="SVGID_21_" cx="-281.5" cy="298.6" r="56"/>
		</defs>
		<clipPath id="SVGID_22_">
			<use xlink:href="#SVGID_21_"  style="overflow:visible;"/>
		</clipPath>
		<path id="XMLID_6765_" class="st10" d="M-330.2,413.9c1.4,0.4,2.7,1,4.1,1.2c-0.6,1-0.9,2.1-1.4,3.2c-1,2.5-1.8,5.2-2.5,7.8
			c-0.4,1.7-0.5,3.5-0.6,5.3c-1.5-0.6-3-1.3-4.6-1.9c-0.5-0.2-1-0.4-1.5-0.6c-1.6-0.7-3.3-1.4-5-2c-0.8-0.3-1.5-0.6-2.3-0.9
			c-1.6-0.6-3.3-1.3-4.9-1.9c-0.2-0.1-0.4-0.2-0.6-0.2c-1.2-3.6-1.1-7.5-0.5-11.2c0.4-2,1.1-3.8,1.8-5.7c1,0.4,2,0.8,3,1.1
			c-0.2,0.6-0.4,1.2-0.4,1.8c0,0.7,0.9,1.2,1.6,0.9c0.6-0.4,0.8-1.2,1.1-1.8c3.5,1.3,7,2.7,10.4,4c-0.1,0.6-0.3,1.2-0.3,1.9
			c0,0.8,1.1,1.3,1.7,0.8c0.4-0.3,0.6-0.8,0.7-1.3C-330.4,414.3-330.3,414-330.2,413.9z"/>
	</g>
	<g>
		<defs>
			<circle id="SVGID_23_" cx="-281.5" cy="298.6" r="56"/>
		</defs>
		<clipPath id="SVGID_24_">
			<use xlink:href="#SVGID_23_"  style="overflow:visible;"/>
		</clipPath>
		<path id="XMLID_6652_" class="st11" d="M-238.6,375l-1-27.9c0-19.4-14.2-35.8-35.1-39.5v-2.4c9.5-2.7,15.1-9.2,17.2-17.3
			c0.3,0.1,1.1,0.1,1.3,0.1c1.8,0,3.5-1.5,3.5-3.3s-1.3-3.3-3.1-3.3c0-13.8-11.2-25.1-25-25.1c-13.8,0-25,11.2-25,25.1
			c-1.8,0-3.2,1.5-3.2,3.3s1.5,3.3,3.3,3.3c0.3,0,0.9,0,1.2-0.1c2.1,8.1,9,14.7,16.6,17.3v2.4c-16.1,2.4-33.5,19.7-33.5,39.2
			l1.2,28.2c0,0.2,0-0.2,0,0c0,3.4,2.7,6.9,6.1,6.9c3.4,0,4.7-2.8,4.7-6.2c0-2.5-5.1-4.6-5.1-5.6l2.1-21.5c0-4.8-0.6-8.6,1.4-12.7
			c0,0.5,0.1,0.9,0.1,1.4l0.2,14.5c0.8,11.1,7.5,18.2,15.1,23.2v54.3l-5.6,7.5h7.1h7.1h2.9v-58.5c0,0.1,2,0.1,2.9,0.1
			c0.8,0,2.9,0,2.9-0.1v58.5h4.2h7.1h7.1l-7-7.5V375c5.7-4.8,13.3-14.1,13.3-24.9v-15c0-0.5,0.4-1.1,0.4-1.6
			c1.9,4.1,3.4,8.6,3.4,13.4V370c-1.9,1-3.2,3.1-3.2,5.6c0,3.4,3.1,6.2,6.5,6.2S-238.6,379.1-238.6,375
			C-238.6,374.8-238.6,375.2-238.6,375z"/>
	</g>
	<g>
		<defs>
			<circle id="SVGID_25_" cx="-281.5" cy="298.6" r="56"/>
		</defs>
		<clipPath id="SVGID_26_">
			<use xlink:href="#SVGID_25_"  style="overflow:visible;"/>
		</clipPath>
		<g class="st12">
			<g id="REMERA_9_">
				<defs>
					<path id="SVGID_27_" d="M-238.6,375l-1-28c0-19.4-14.2-35.7-35.1-39.4v-2.4c9.5-2.7,15.1-9.2,17.2-17.3c0.3,0.1,1,0.1,1.3,0.1
						c1.8,0,3.5-1.5,3.5-3.3s-1.3-3.3-3.1-3.3c0-13.8-11.2-25.1-25-25.1c-13.8,0-25,11.2-25,25.1c-1.8,0-3.2,1.5-3.2,3.3
						s1.5,3.3,3.3,3.3c0.3,0,0.9,0,1.2-0.1c2.1,8.1,9,14.7,16.6,17.3v2.4c-19,3.2-35,19.7-35,39.1l0.8,28.3c0,0.2,0.6,0.5,0.6,0.7
						c0,3.4,3.1,6.2,6.6,6.2c3.4,0,6-2.8,6-6.2c0-2.5-3.7-4.6-3.7-5.6V347c0-4.8-0.3-7,1.6-11.1c0,0.5,0,3.8,0,4.3l0.5,10.9
						c0,10.8,9.2,19.1,14.9,23.9v54.3l-5.6,7.5h7.1h7.1h2.9v-58.5c0,0.1,2,0.1,2.9,0.1c0.8,0,2.9,0,2.9-0.1v58.5h4.2h7.1h7.1l-7-7.5
						V375c5.7-4.8,13.3-14.1,13.3-24.9v-15c0-0.5,0.2-0.9,0.1-1.5c1.9,4.1,3.7,8.5,3.7,13.3V370c-1.9,1-3.2,3.1-3.2,5.6
						c0,3.4,3.1,6.2,6.5,6.2S-238.6,378.4-238.6,375C-238.6,374.8-238.6,375.2-238.6,375z"/>
				</defs>
				<defs>
					<path id="SVGID_28_" d="M-238.6,375l-1-28c0-19.4-14.2-35.7-35.1-39.4v-2.4c9.5-2.7,15.1-9.2,17.2-17.3c0.3,0.1,1,0.1,1.3,0.1
						c1.8,0,3.5-1.5,3.5-3.3s-1.3-3.3-3.1-3.3c0-13.8-11.2-25.1-25-25.1c-13.8,0-25,11.2-25,25.1c-1.8,0-3.2,1.5-3.2,3.3
						s1.5,3.3,3.3,3.3c0.3,0,0.9,0,1.2-0.1c2.1,8.1,9,14.7,16.6,17.3v2.4c-19,3.2-35,19.7-35,39.1l0.8,28.3c0,0.2,0.6,0.5,0.6,0.7
						c0,3.4,3.1,6.2,6.6,6.2c3.4,0,6-2.8,6-6.2c0-2.5-3.7-4.6-3.7-5.6V347c0-4.8-0.3-7,1.6-11.1c0,0.5,0,3.8,0,4.3l0.5,10.9
						c0,10.8,9.2,19.1,14.9,23.9v54.3l-5.6,7.5h7.1h7.1h2.9v-58.5c0,0.1,2,0.1,2.9,0.1c0.8,0,2.9,0,2.9-0.1v58.5h4.2h7.1h7.1l-7-7.5
						V375c5.7-4.8,13.3-14.1,13.3-24.9v-15c0-0.5,0.2-0.9,0.1-1.5c1.9,4.1,3.7,8.5,3.7,13.3V370c-1.9,1-3.2,3.1-3.2,5.6
						c0,3.4,3.1,6.2,6.5,6.2S-238.6,378.4-238.6,375C-238.6,374.8-238.6,375.2-238.6,375z"/>
				</defs>
				<clipPath id="SVGID_29_">
					<use xlink:href="#SVGID_27_"  style="overflow:visible;"/>
				</clipPath>
				<clipPath id="SVGID_30_" class="st13">
					<use xlink:href="#SVGID_28_"  style="overflow:visible;"/>
				</clipPath>
				<path id="XMLID_6649_" class="st14" d="M-232.5,311.5l-34.1-4.7c0,8.9-6.5,16-14.4,16c-7.6,0-13.8-6.6-14.4-14.9l-23.5,3.1
					l-10.7,26h18.4l0.1,32.6h57.9l1.6-32.5l22.5-1.4L-232.5,311.5z"/>
				<rect id="XMLID_6646_" x="-306.5" y="367.6" class="st15" width="52.2" height="2.1"/>
			</g>
			<g>
				<defs>
					<circle id="SVGID_31_" cx="-281.5" cy="298.6" r="56"/>
				</defs>
				<clipPath id="SVGID_32_">
					<use xlink:href="#SVGID_31_"  style="overflow:visible;"/>
				</clipPath>
				<g class="st16">
					<g id="XMLID_6590_">
						<defs>
							<path id="SVGID_33_" d="M-238.6,375l-1-27.8c0-19.4-14.2-35.9-35.1-39.6v-2.4c9.5-2.7,15.1-9.2,17.2-17.3
								c0.3,0.1,1.1,0.1,1.3,0.1c1.8,0,3.5-1.5,3.5-3.3s-1.3-3.3-3.1-3.3c0-13.8-11.2-25.1-25-25.1c-13.8,0-25,11.2-25,25.1
								c-1.8,0-3.2,1.5-3.2,3.3s1.5,3.3,3.3,3.3c0.3,0,0.9,0,1.2-0.1c2.1,8.1,9,14.7,16.6,17.3v2.4c-21.1,3.7-32.5,19.9-32.5,39.3
								V375c0,0.2-0.3,0.5-0.3,0.7c0,3.4,2.7,6.2,6.1,6.2s4.8-2.8,4.8-6.2c0-2.5-4.9-4.6-4.9-5.6V347c0-4.8,0.5-8.8,2.5-12.9
								c0,0.5-0.6,0.5-0.6,1.1v15c0,10.8,9.5,20.1,17.1,24.9v54.2l-5.6,7.5h7.1h7.1h2.9v-58.5c0,0.1,2,0.1,2.9,0.1
								c0.8,0,2.9,0,2.9-0.1v58.5h4.2h7.1h7.1l-7-7.5V375c5.7-4.8,13.3-14.1,13.3-24.9v-15c0-0.5,0.4-1.1,0.4-1.6
								c1.9,4.1,3.4,8.6,3.4,13.4V370c-1.9,1-3.2,3.1-3.2,5.6c0,3.4,3.1,6.2,6.5,6.2S-238.6,378.4-238.6,375
								C-238.6,374.8-238.6,375.2-238.6,375z"/>
						</defs>
						<defs>
							<path id="SVGID_34_" d="M-238.6,375l-1-27.8c0-19.4-14.2-35.9-35.1-39.6v-2.4c9.5-2.7,15.1-9.2,17.2-17.3
								c0.3,0.1,1.1,0.1,1.3,0.1c1.8,0,3.5-1.5,3.5-3.3s-1.3-3.3-3.1-3.3c0-13.8-11.2-25.1-25-25.1c-13.8,0-25,11.2-25,25.1
								c-1.8,0-3.2,1.5-3.2,3.3s1.5,3.3,3.3,3.3c0.3,0,0.9,0,1.2-0.1c2.1,8.1,9,14.7,16.6,17.3v2.4c-21.1,3.7-32.5,19.9-32.5,39.3
								V375c0,0.2-0.3,0.5-0.3,0.7c0,3.4,2.7,6.2,6.1,6.2s4.8-2.8,4.8-6.2c0-2.5-4.9-4.6-4.9-5.6V347c0-4.8,0.5-8.8,2.5-12.9
								c0,0.5-0.6,0.5-0.6,1.1v15c0,10.8,9.5,20.1,17.1,24.9v54.2l-5.6,7.5h7.1h7.1h2.9v-58.5c0,0.1,2,0.1,2.9,0.1
								c0.8,0,2.9,0,2.9-0.1v58.5h4.2h7.1h7.1l-7-7.5V375c5.7-4.8,13.3-14.1,13.3-24.9v-15c0-0.5,0.4-1.1,0.4-1.6
								c1.9,4.1,3.4,8.6,3.4,13.4V370c-1.9,1-3.2,3.1-3.2,5.6c0,3.4,3.1,6.2,6.5,6.2S-238.6,378.4-238.6,375
								C-238.6,374.8-238.6,375.2-238.6,375z"/>
						</defs>
						<defs>
							<path id="SVGID_35_" d="M-238.6,375l-1-27.8c0-19.4-14.2-35.9-35.1-39.6v-2.4c9.5-2.7,15.1-9.2,17.2-17.3
								c0.3,0.1,1.1,0.1,1.3,0.1c1.8,0,3.5-1.5,3.5-3.3s-1.3-3.3-3.1-3.3c0-13.8-11.2-25.1-25-25.1c-13.8,0-25,11.2-25,25.1
								c-1.8,0-3.2,1.5-3.2,3.3s1.5,3.3,3.3,3.3c0.3,0,0.9,0,1.2-0.1c2.1,8.1,9,14.7,16.6,17.3v2.4c-21.1,3.7-32.5,19.9-32.5,39.3
								V375c0,0.2-0.3,0.5-0.3,0.7c0,3.4,2.7,6.2,6.1,6.2s4.8-2.8,4.8-6.2c0-2.5-4.9-4.6-4.9-5.6V347c0-4.8,0.5-8.8,2.5-12.9
								c0,0.5-0.6,0.5-0.6,1.1v15c0,10.8,9.5,20.1,17.1,24.9v54.2l-5.6,7.5h7.1h7.1h2.9v-58.5c0,0.1,2,0.1,2.9,0.1
								c0.8,0,2.9,0,2.9-0.1v58.5h4.2h7.1h7.1l-7-7.5V375c5.7-4.8,13.3-14.1,13.3-24.9v-15c0-0.5,0.4-1.1,0.4-1.6
								c1.9,4.1,3.4,8.6,3.4,13.4V370c-1.9,1-3.2,3.1-3.2,5.6c0,3.4,3.1,6.2,6.5,6.2S-238.6,378.4-238.6,375
								C-238.6,374.8-238.6,375.2-238.6,375z"/>
						</defs>
						<clipPath id="SVGID_36_">
							<use xlink:href="#SVGID_33_"  style="overflow:visible;"/>
						</clipPath>
						<clipPath id="SVGID_37_" class="st17">
							<use xlink:href="#SVGID_34_"  style="overflow:visible;"/>
						</clipPath>
						<clipPath id="SVGID_38_" class="st18">
							<use xlink:href="#SVGID_35_"  style="overflow:visible;"/>
						</clipPath>
						<polygon id="XMLID_6598_" class="st19" points="-255.5,400.4 -306.9,400.4 -298.3,374.9 -306.9,367 -255.5,367 -264,374.8 
													"/>
						<rect id="XMLID_6595_" x="-298.3" y="418.6" class="st20" width="33.4" height="11.1"/>
						<rect id="XMLID_6592_" x="-282" y="367" class="st21" width="1.9" height="13.8"/>
					</g>
					<g>
						<defs>
							<circle id="SVGID_39_" cx="-281.5" cy="298.6" r="56"/>
						</defs>
						<clipPath id="SVGID_40_">
							<use xlink:href="#SVGID_39_"  style="overflow:visible;"/>
						</clipPath>
						<path id="XMLID_6583_" class="st22" d="M-295.4,429.3c0.7-0.4,1.9-0.4,2.7-0.5c3,0,6,0,9,0c0.2,1.3,0,2.7,0.1,4
							c0,1,0.1,1.9-0.1,2.9c-0.3,0.4-0.6,0.8-1.1,0.8c-1.3,0-2.6,0-3.8,0c-0.6,0-1.2,0-1.8,0c-3.4,0-6.8,0-10.2,0
							c-0.5,0-0.8-0.4-1.2-0.7c0-0.5-0.1-1.1,0.3-1.6c0.4-0.6,1.2-0.4,1.8-0.5c0.4-0.8,0.8-1.6,1.4-2.3
							C-297.4,430.4-296.6,429.9-295.4,429.3z"/>
					</g>
					<g>
						<defs>
							<circle id="SVGID_41_" cx="-281.5" cy="298.6" r="56"/>
						</defs>
						<clipPath id="SVGID_42_">
							<use xlink:href="#SVGID_41_"  style="overflow:visible;"/>
						</clipPath>
						<path id="XMLID_6582_" class="st23" d="M-278.3,428.9c3.1-0.1,6.1,0,9.2,0c0.7,0,1.5-0.1,2.1,0.3c1.2,0.6,2.4,1.3,3.3,2.3
							c0.6,0.7,1,1.5,1.4,2.3c0.6,0,1.4-0.1,1.8,0.5c0.4,0.4,0.3,1,0.3,1.6c-0.3,0.3-0.6,0.8-1.1,0.7c-3.4,0-6.8,0-10.2,0
							c-0.6,0-1.2,0-1.8,0c-1.3,0-2.5,0-3.8,0c-0.5,0.1-0.8-0.4-1.1-0.8c-0.2-1.4,0-2.8-0.1-4.2
							C-278.4,430.7-278.5,429.8-278.3,428.9z"/>
					</g>
					<g>
						<defs>
							<circle id="SVGID_43_" cx="-281.5" cy="298.6" r="56"/>
						</defs>
						<clipPath id="SVGID_44_">
							<use xlink:href="#SVGID_43_"  style="overflow:visible;"/>
						</clipPath>
						<path id="XMLID_6581_" class="st24" d="M-301.7,435.8c0.3,0.3,0.7,0.7,1.2,0.7c3.4,0,6.8,0,10.2,0c0,0.5,0,0.9-0.1,1.4
							c-3.4,0-6.9,0-10.3,0c-0.4,0-0.7-0.2-0.9-0.5C-301.8,436.9-301.7,436.4-301.7,435.8z"/>
					</g>
					<g>
						<defs>
							<circle id="SVGID_45_" cx="-281.5" cy="298.6" r="56"/>
						</defs>
						<clipPath id="SVGID_46_">
							<use xlink:href="#SVGID_45_"  style="overflow:visible;"/>
						</clipPath>
						<path id="XMLID_6580_" class="st25" d="M-284.8,436.6c0.5,0.1,0.8-0.4,1.1-0.7c0.2,0.8,0.1,1.8-0.8,2.1c-1.4,0.1-2.7,0-4.1,0
							c0-0.5,0-0.9,0-1.4C-287.3,436.5-286,436.6-284.8,436.6z"/>
					</g>
					<g>
						<defs>
							<circle id="SVGID_47_" cx="-281.5" cy="298.6" r="56"/>
						</defs>
						<clipPath id="SVGID_48_">
							<use xlink:href="#SVGID_47_"  style="overflow:visible;"/>
						</clipPath>
						<path id="XMLID_6579_" class="st26" d="M-278.3,435.8c0.3,0.3,0.6,0.8,1.1,0.7c1.3,0,2.5,0,3.8,0c0,0.5,0,0.9,0,1.4
							c-1.3,0-2.5,0-3.8,0c-0.5,0-0.9-0.4-1.1-0.8C-278.4,436.7-278.3,436.3-278.3,435.8z"/>
					</g>
					<g>
						<defs>
							<circle id="SVGID_49_" cx="-281.5" cy="298.6" r="56"/>
						</defs>
						<clipPath id="SVGID_50_">
							<use xlink:href="#SVGID_49_"  style="overflow:visible;"/>
						</clipPath>
						<path id="XMLID_6578_" class="st27" d="M-261.4,436.5c0.5,0,0.8-0.4,1.1-0.7c0,0.6,0.3,1.5-0.3,1.9c-0.2,0.2-0.5,0.2-0.8,0.2
							c-3.4,0-6.8,0-10.2,0c0-0.5-0.1-0.9-0.1-1.4C-268.2,436.5-264.8,436.6-261.4,436.5z"/>
					</g>
					<g>
						<defs>
							<circle id="SVGID_51_" cx="-281.5" cy="298.6" r="56"/>
						</defs>
						<clipPath id="SVGID_52_">
							<use xlink:href="#SVGID_51_"  style="overflow:visible;"/>
						</clipPath>
						<path id="XMLID_6576_" class="st28" d="M-281.4,298.3c-2.3,0-3.4-2-3.7-3.1l1.2-0.3l-0.6,0.2l0.6-0.2c0,0.1,0.6,2.2,2.6,2.1
							c2-0.1,2.6-2.1,2.6-2.2l1.2,0.3c-0.3,1-1.4,3-3.8,3.1C-281.3,298.3-281.4,298.3-281.4,298.3"/>
					</g>
					<g>
						<defs>
							<circle id="SVGID_53_" cx="-281.5" cy="298.6" r="56"/>
						</defs>
						<clipPath id="SVGID_54_">
							<use xlink:href="#SVGID_53_"  style="overflow:visible;"/>
						</clipPath>
						<path id="XMLID_6540_" class="st29" d="M-286,282.6c0,1-0.8,1.7-1.7,1.7c-0.9,0-1.7-0.8-1.7-1.7c0-1,0.8-1.7,1.7-1.7
							C-286.8,280.9-286,281.7-286,282.6"/>
					</g>
					<g>
						<defs>
							<circle id="SVGID_55_" cx="-281.5" cy="298.6" r="56"/>
						</defs>
						<clipPath id="SVGID_56_">
							<use xlink:href="#SVGID_55_"  style="overflow:visible;"/>
						</clipPath>
						<path id="XMLID_6537_" class="st30" d="M-273.8,282.5c0,1-0.8,1.7-1.7,1.7c-1,0-1.7-0.8-1.7-1.7c0-1,0.8-1.7,1.7-1.7
							C-274.5,280.7-273.8,281.5-273.8,282.5"/>
					</g>
					<g>
						<defs>
							<circle id="SVGID_57_" cx="-281.5" cy="298.6" r="56"/>
						</defs>
						<clipPath id="SVGID_58_">
							<use xlink:href="#SVGID_57_"  style="overflow:visible;"/>
						</clipPath>
						<path id="XMLID_6535_" class="st31" d="M-269.1,307.7c-2-2-5.7-1.8-5.7-1.8c0,0.9,0,1.7,0,1.7s3-0.1,4.5,1.3
							c1.3,1.2,1.9,3.1,1.9,5.7c0,0-4.1,9.2-4.6,12.5c-0.7,4.3-1.1,7.7-1.1,7.7v0.1c0,0.2,1.7,0.5,1.7,0.1c0.1-0.4,0.5-3.7,1.1-7.6
							c0.5-3.5,4.6-12.8,4.6-12.8C-266.6,311.6-267.5,309.3-269.1,307.7z"/>
					</g>
					<g>
						<defs>
							<circle id="SVGID_59_" cx="-281.5" cy="298.6" r="56"/>
						</defs>
						<clipPath id="SVGID_60_">
							<use xlink:href="#SVGID_59_"  style="overflow:visible;"/>
						</clipPath>
						<path id="XMLID_6533_" class="st32" d="M-293.2,307.7c1.9-2,5.2-1.8,5.2-1.8c0,0.9,0,1.5,0,1.5s-2.5,0.1-4,1.5
							c-1.3,1.2-1.8,3.1-1.8,5.7c0,0,4.2,9.2,4.7,12.5c0.7,4.3,1.1,7.7,1.1,7.7v0.1c0,0.2-1.7,0.5-1.7,0.1c-0.1-0.4-0.5-3.7-1.1-7.6
							c-0.5-3.5-4.8-12.8-4.8-12.8C-295.5,311.6-294.7,309.3-293.2,307.7z"/>
					</g>
					<g>
						<defs>
							<circle id="SVGID_61_" cx="-281.5" cy="298.6" r="56"/>
						</defs>
						<clipPath id="SVGID_62_">
							<use xlink:href="#SVGID_61_"  style="overflow:visible;"/>
						</clipPath>
						<path id="XMLID_6532_" class="st33" d="M-274.7,332.5c0-1.1-0.9-2-2-2h-9.3c-1.1,0-2,0.9-2,2v5.4c0,1.1,0.9,2,2,2h9.2
							c1.1,0,2-0.9,2-2L-274.7,332.5L-274.7,332.5z"/>
					</g>
					<g>
						<defs>
							<circle id="SVGID_63_" cx="-281.5" cy="298.6" r="56"/>
						</defs>
						<clipPath id="SVGID_64_">
							<use xlink:href="#SVGID_63_"  style="overflow:visible;"/>
						</clipPath>
						<path id="XMLID_6531_" class="st34" d="M-269,345.5c0,1.1-0.9,2-2,2h-22.6c-1.1,0-2-0.9-2-2v-11.1c0-1.1,0.9-2,2-2h22.5
							c1.1,0,2,0.9,2,2v11.1H-269z"/>
					</g>
					<g>
						<defs>
							<circle id="SVGID_65_" cx="-281.5" cy="298.6" r="56"/>
						</defs>
						<clipPath id="SVGID_66_">
							<use xlink:href="#SVGID_65_"  style="overflow:visible;"/>
						</clipPath>
						<g id="XMLID_5443_" class="st35">
							<g id="XMLID_6528_">
								<defs>
									<path id="SVGID_67_" d="M-269,345.5c0,1.1-0.9,2-2,2h-22.6c-1.1,0-2-0.9-2-2v-11.1c0-1.1,0.9-2,2-2h22.5c1.1,0,2,0.9,2,2
										v11.1H-269z"/>
								</defs>
								<clipPath id="SVGID_68_">
									<use xlink:href="#SVGID_67_"  style="overflow:visible;"/>
								</clipPath>
								<path id="XMLID_6530_" class="st36" d="M-276.6,348c0,1.5-0.4,3.3-1.5,3.3h-6.9c-1.1,0-3-1.8-3-3.3v-14.5
									c0-1.5,1.8-3.1,3-3.1h6.9c1.1,0,1.5,1.5,1.5,3.1V348z"/>
							</g>
							<g>
								<defs>
									<circle id="SVGID_69_" cx="-281.5" cy="298.6" r="56"/>
								</defs>
								<clipPath id="SVGID_70_">
									<use xlink:href="#SVGID_69_"  style="overflow:visible;"/>
								</clipPath>
								<circle id="XMLID_6527_" class="st37" cx="-281.7" cy="340.5" r="6.9"/>
							</g>
							<g>
								<defs>
									<circle id="SVGID_71_" cx="-281.5" cy="298.6" r="56"/>
								</defs>
								<clipPath id="SVGID_72_">
									<use xlink:href="#SVGID_71_"  style="overflow:visible;"/>
								</clipPath>
								<circle id="XMLID_6526_" class="st38" cx="-281.7" cy="340.5" r="5.9"/>
							</g>
							<g>
								<defs>
									<circle id="SVGID_73_" cx="-281.5" cy="298.6" r="56"/>
								</defs>
								<clipPath id="SVGID_74_">
									<use xlink:href="#SVGID_73_"  style="overflow:visible;"/>
								</clipPath>
								<circle id="XMLID_6525_" class="st39" cx="-281.7" cy="340.5" r="3.7"/>
							</g>
							<g>
								<defs>
									<circle id="SVGID_75_" cx="-281.5" cy="298.6" r="56"/>
								</defs>
								<clipPath id="SVGID_76_">
									<use xlink:href="#SVGID_75_"  style="overflow:visible;"/>
								</clipPath>
								<path id="XMLID_6524_" class="st40" d="M-278.5,331.8c0,0.3-0.3,0.6-0.6,0.6h-4.6c-0.3,0-0.6-0.3-0.6-0.6V331
									c0-0.3,0.3-0.6,0.6-0.6h4.6c0.3,0,0.6,0.3,0.6,0.6V331.8z"/>
							</g>
							<g>
								<defs>
									<circle id="SVGID_77_" cx="-281.5" cy="298.6" r="56"/>
								</defs>
								<clipPath id="SVGID_78_">
									<use xlink:href="#SVGID_77_"  style="overflow:visible;"/>
								</clipPath>
								<path id="XMLID_6520_" class="st41" d="M-269,335.6c0,0.6-0.5,1.1-1.1,1.1h-1.5c-0.6,0-1.1-0.5-1.1-1.1l0,0
									c0-0.6,0.5-1.1,1.1-1.1h1.5C-269.5,334.5-269,335-269,335.6L-269,335.6z"/>
							</g>
							<g>
								<defs>
									<circle id="SVGID_79_" cx="-281.5" cy="298.6" r="56"/>
								</defs>
								<clipPath id="SVGID_80_">
									<use xlink:href="#SVGID_79_"  style="overflow:visible;"/>
								</clipPath>
								<polygon id="XMLID_6519_" class="st42" points="-270.9,332.3 -270.9,332.3 -274.7,332.3 -274.7,332.3 -274.7,332.3 
									-274.7,332.3 -270.9,332.3 								"/>
							</g>
							<g>
								<defs>
									<circle id="SVGID_81_" cx="-281.5" cy="298.6" r="56"/>
								</defs>
								<clipPath id="SVGID_82_">
									<use xlink:href="#SVGID_81_"  style="overflow:visible;"/>
								</clipPath>
								<path id="XMLID_5561_" class="st43" d="M-312.4,336.6c-2.7,0-6.4-1.3-8.4-2.7c-0.3,0.9-0.8,2.5-1,3.5
									c2.1,1.5,5.8,2.8,8.6,2.8c0.3,0,0.6,0,0.9,0c0.1-1,0.6-2.7,0.9-3.7C-311.7,336.6-312.1,336.6-312.4,336.6z"/>
							</g>
							<g>
								<defs>
									<circle id="SVGID_83_" cx="-281.5" cy="298.6" r="56"/>
								</defs>
								<clipPath id="SVGID_84_">
									<use xlink:href="#SVGID_83_"  style="overflow:visible;"/>
								</clipPath>
								<path id="XMLID_5560_" class="st44" d="M-245.8,339.2c2.1-0.6,3.3-1.4,4.7-2.8c-0.3-1-1-2.8-1.4-3.8
									c-1.5,1.6-2.8,2.6-5.1,3.2c-1.4,0.4-3.4,1.1-4.7,1.1c0.3,0.8,1,2.5,1.3,3.4C-249.4,340.4-247.3,339.7-245.8,339.2z"/>
							</g>
							<g>
								<defs>
									<circle id="SVGID_85_" cx="-281.5" cy="298.6" r="56"/>
								</defs>
								<clipPath id="SVGID_86_">
									<use xlink:href="#SVGID_85_"  style="overflow:visible;"/>
								</clipPath>
								<path id="XMLID_5552_" class="st45" d="M-267.4,260.1L-267.4,260.1c-5.8-3.6-13.1-4.9-19.8-3.2c-10.3,2.4-18.4,11.8-18.8,22
									c3.8-3.6,6.3-8.2,8-13c1.4,1.3,2.3,2,3.5,2.8c9.2,7.7,21.7,10.5,33.6,11c1.7,0,3.4,0.1,5.1,0.1
									C-256,271.9-260.4,264.3-267.4,260.1"/>
							</g>
							<g>
								<circle id="XMLID_5553_" class="st46" cx="-281.5" cy="298.6" r="56"/>
							</g>
						</g>
					</g>
				</g>
			</g>
		</g>
	</g>
</g>
</svg>
