<?xml version="1.0" encoding="utf-8"?>
<!-- Generator: Adobe Illustrator 19.0.0, SVG Export Plug-In . SVG Version: 6.00 Build 0)  -->
<svg version="1.1" id="Capa_1" xmlns="http://www.w3.org/2000/svg" xmlns:xlink="http://www.w3.org/1999/xlink" x="0px" y="0px"
	 viewBox="-351 227.3 139 141" style="enable-background:new -351 227.3 139 141;" xml:space="preserve">
<style type="text/css">
	.st0{clip-path:url(#SVGID_2_);fill:#ECECEC;}
	.st1{clip-path:url(#SVGID_4_);fill:#EFCEAE;}
	.st2{clip-path:url(#SVGID_6_);fill:#EFCEAE;}
	.st3{clip-path:url(#SVGID_8_);fill:#EFCEAE;}
	.st4{clip-path:url(#SVGID_10_);fill:#28160D;}
	.st5{clip-path:url(#SVGID_12_);fill:#28160D;}
	.st6{clip-path:url(#SVGID_14_);fill:#28160D;}
	.st7{clip-path:url(#SVGID_16_);fill:#EFCEAE;}
	.st8{clip-path:url(#SVGID_18_);fill:#FFFFFF;}
	.st9{clip-path:url(#SVGID_20_);fill:#FFFFFF;}
	.st10{clip-path:url(#SVGID_22_);fill:#FFFFFF;}
	.st11{clip-path:url(#SVGID_24_);fill:#F5F5F5;}
	.st12{clip-path:url(#SVGID_26_);fill:#F5F5F5;}
	.st13{clip-path:url(#SVGID_28_);fill:#3C3C3B;}
	.st14{clip-path:url(#SVGID_30_);fill:#3C3C3B;}
	.st15{clip-path:url(#SVGID_32_);fill:#2B327A;}
	.st16{clip-path:url(#SVGID_34_);fill:#2B327A;}
	.st17{clip-path:url(#SVGID_36_);fill:#2B327A;}
	.st18{clip-path:url(#SVGID_38_);fill:#3C3C3B;}
	.st19{clip-path:url(#SVGID_40_);fill:#12110B;}
	.st20{clip-path:url(#SVGID_42_);fill:#494644;}
	.st21{clip-path:url(#SVGID_44_);fill:#494644;}
	.st22{clip-path:url(#SVGID_46_);fill:#12110B;}
	.st23{clip-path:url(#SVGID_48_);fill:#494644;}
	.st24{clip-path:url(#SVGID_50_);fill:#494644;}
	.st25{clip-path:url(#SVGID_52_);fill:#EFCEAE;}
	.st26{clip-path:url(#SVGID_54_);fill:#EFCEAE;}
	.st27{fill:none;stroke:#ECECEC;stroke-miterlimit:10;}
	.st28{fill:#13110C;}
</style>
<g id="XMLID_9007_">
	<g>
		<defs>
			<circle id="SVGID_1_" cx="-281.4" cy="298.6" r="56"/>
		</defs>
		<clipPath id="SVGID_2_">
			<use xlink:href="#SVGID_1_"  style="overflow:visible;"/>
		</clipPath>
		<circle id="XMLID_9921_" class="st0" cx="-281.4" cy="298.6" r="56"/>
	</g>
	<g>
		<defs>
			<circle id="SVGID_3_" cx="-281.4" cy="298.6" r="56"/>
		</defs>
		<clipPath id="SVGID_4_">
			<use xlink:href="#SVGID_3_"  style="overflow:visible;"/>
		</clipPath>
		<path id="XMLID_9920_" class="st1" d="M-304.9,279.3c0-12.8,10.5-23.2,23.4-23.2s23.4,10.4,23.4,23.2c0,12.8-10.5,23.2-23.4,23.2
			S-304.9,292.2-304.9,279.3z"/>
	</g>
	<g>
		<defs>
			<circle id="SVGID_5_" cx="-281.4" cy="298.6" r="56"/>
		</defs>
		<clipPath id="SVGID_6_">
			<use xlink:href="#SVGID_5_"  style="overflow:visible;"/>
		</clipPath>
		<circle id="XMLID_9919_" class="st2" cx="-304.7" cy="282.2" r="3.1"/>
	</g>
	<g>
		<defs>
			<circle id="SVGID_7_" cx="-281.4" cy="298.6" r="56"/>
		</defs>
		<clipPath id="SVGID_8_">
			<use xlink:href="#SVGID_7_"  style="overflow:visible;"/>
		</clipPath>
		<circle id="XMLID_9914_" class="st3" cx="-258.2" cy="282.2" r="3.1"/>
	</g>
	<g>
		<defs>
			<circle id="SVGID_9_" cx="-281.4" cy="298.6" r="56"/>
		</defs>
		<clipPath id="SVGID_10_">
			<use xlink:href="#SVGID_9_"  style="overflow:visible;"/>
		</clipPath>
		<path id="XMLID_9913_" class="st4" d="M-285.5,280.7c0,0.9-0.7,1.6-1.6,1.6s-1.6-0.7-1.6-1.6s0.7-1.6,1.6-1.6
			C-286.2,279.1-285.5,279.8-285.5,280.7"/>
	</g>
	<g>
		<defs>
			<circle id="SVGID_11_" cx="-281.4" cy="298.6" r="56"/>
		</defs>
		<clipPath id="SVGID_12_">
			<use xlink:href="#SVGID_11_"  style="overflow:visible;"/>
		</clipPath>
		<path id="XMLID_9912_" class="st5" d="M-274.3,280.5c0,0.9-0.7,1.6-1.6,1.6s-1.6-0.7-1.6-1.6c0-0.9,0.7-1.6,1.6-1.6
			S-274.3,279.6-274.3,280.5"/>
	</g>
	<g>
		<defs>
			<circle id="SVGID_13_" cx="-281.4" cy="298.6" r="56"/>
		</defs>
		<clipPath id="SVGID_14_">
			<use xlink:href="#SVGID_13_"  style="overflow:visible;"/>
		</clipPath>
		<path id="XMLID_9292_" class="st6" d="M-281.6,297.4c-2.1,0-3.1-1.8-3.4-2.8l1.1-0.3l-0.6,0.1l0.6-0.1c0,0.1,0.5,2.1,2.3,2
			c1.9-0.1,2.4-2,2.4-2l1.1,0.3C-278.4,295.5-279.4,297.3-281.6,297.4C-281.5,297.4-281.6,297.4-281.6,297.4"/>
	</g>
	<g>
		<defs>
			<circle id="SVGID_15_" cx="-281.4" cy="298.6" r="56"/>
		</defs>
		<clipPath id="SVGID_16_">
			<use xlink:href="#SVGID_15_"  style="overflow:visible;"/>
		</clipPath>
		<polygon id="XMLID_9268_" class="st7" points="-277.6,311.1 -281.4,314.8 -285.2,311.1 -285.2,300.9 -277.6,300.9 		"/>
	</g>
	<g>
		<defs>
			<circle id="SVGID_17_" cx="-281.4" cy="298.6" r="56"/>
		</defs>
		<clipPath id="SVGID_18_">
			<use xlink:href="#SVGID_17_"  style="overflow:visible;"/>
		</clipPath>
		<path id="XMLID_9267_" class="st8" d="M-310.7,331.6v46.9h9.5v-46.9c0-7.8,5.7-14.3,15.2-15.8v-8.5
			C-299.3,308.8-310.7,319.1-310.7,331.6z"/>
	</g>
	<g>
		<defs>
			<circle id="SVGID_19_" cx="-281.4" cy="298.6" r="56"/>
		</defs>
		<clipPath id="SVGID_20_">
			<use xlink:href="#SVGID_19_"  style="overflow:visible;"/>
		</clipPath>
		<path id="XMLID_9122_" class="st9" d="M-276.5,307.1v8.6c9.5,1.4,15.2,8.1,15.2,15.9v45h9.5v-45
			C-251.8,319.1-263.2,308.7-276.5,307.1z"/>
	</g>
	<g>
		<defs>
			<circle id="SVGID_21_" cx="-281.4" cy="298.6" r="56"/>
		</defs>
		<clipPath id="SVGID_22_">
			<use xlink:href="#SVGID_21_"  style="overflow:visible;"/>
		</clipPath>
		<path id="XMLID_9121_" class="st10" d="M-262.5,314.8c-2.5-2.5-6.3-4.4-10.1-5.6v4.8l-1.4-3.5c-0.6-1.4-2.4-1.7-3.4-0.6
			c0,0,0,0,0,0.1c-1.6,2-3.9,3-3.9,3s-2.3-0.9-3.9-3c0,0,0,0,0-0.1c-1-1.2-2.7-0.8-3.2,0.6l-1.3,3.5v-4.5c-3.8,1.3-7.5,3.5-10.5,6.3
			c0,0-0.2,33.9-0.2,34.6c0,2.7,0.5,5.2,1.5,7.1h35.2c1-1.9,1.6-4.4,1.6-7.1C-262.2,349.2-262.5,314.8-262.5,314.8z"/>
	</g>
	<g>
		<defs>
			<circle id="SVGID_23_" cx="-281.4" cy="298.6" r="56"/>
		</defs>
		<clipPath id="SVGID_24_">
			<use xlink:href="#SVGID_23_"  style="overflow:visible;"/>
		</clipPath>
		<path id="XMLID_9119_" class="st11" d="M-283.6,310.2c-0.4-0.5-0.9-1.2-1.2-1.9c-0.2-0.4-0.3-0.8-0.4-1.2l-0.8-3.2
			c0,0-0.2-1.7-2.1-1.8s-1.8,2-1.8,2v5.4v4.5l1.3-3.5c0.6-1.4,2.4-1.7,3.3-0.6c0,0,0,0,0,0.1c1.6,2,3.9,3,3.9,3L-283.6,310.2z"/>
	</g>
	<g>
		<defs>
			<circle id="SVGID_25_" cx="-281.4" cy="298.6" r="56"/>
		</defs>
		<clipPath id="SVGID_26_">
			<use xlink:href="#SVGID_25_"  style="overflow:visible;"/>
		</clipPath>
		<path id="XMLID_9118_" class="st12" d="M-274.6,302.2c-1.9,0.1-2.2,1.8-2.2,1.8l-0.8,3.2c-0.1,0.3-0.2,0.7-0.3,1.1
			c-0.3,0.7-0.7,1.5-1.2,2l-2.2,2.8c0,0,2.3-0.9,3.9-3c0,0,0,0,0-0.1c1-1.2,2.8-0.8,3.4,0.6l1.4,3.5v-4.8v-5
			C-272.7,304.2-272.7,302.1-274.6,302.2z"/>
	</g>
	<g>
		<defs>
			<circle id="SVGID_27_" cx="-281.4" cy="298.6" r="56"/>
		</defs>
		<clipPath id="SVGID_28_">
			<use xlink:href="#SVGID_27_"  style="overflow:visible;"/>
		</clipPath>
		<rect id="XMLID_9115_" x="-291.7" y="363.3" class="st13" width="9.5" height="77.9"/>
	</g>
	<g>
		<defs>
			<circle id="SVGID_29_" cx="-281.4" cy="298.6" r="56"/>
		</defs>
		<clipPath id="SVGID_30_">
			<use xlink:href="#SVGID_29_"  style="overflow:visible;"/>
		</clipPath>
		<rect id="XMLID_9114_" x="-278.4" y="363.3" class="st14" width="7.6" height="77.9"/>
	</g>
	<g>
		<defs>
			<circle id="SVGID_31_" cx="-281.4" cy="298.6" r="56"/>
		</defs>
		<clipPath id="SVGID_32_">
			<use xlink:href="#SVGID_31_"  style="overflow:visible;"/>
		</clipPath>
		<polygon id="XMLID_9061_" class="st15" points="-276.9,346.2 -286,346.2 -283.4,313.9 -279.4,313.9 		"/>
	</g>
	<g>
		<defs>
			<circle id="SVGID_33_" cx="-281.4" cy="298.6" r="56"/>
		</defs>
		<clipPath id="SVGID_34_">
			<use xlink:href="#SVGID_33_"  style="overflow:visible;"/>
		</clipPath>
		<polygon id="XMLID_9058_" class="st16" points="-276.9,346.2 -286,346.2 -281.5,351.9 -281.3,351.9 		"/>
	</g>
	<g>
		<defs>
			<circle id="SVGID_35_" cx="-281.4" cy="298.6" r="56"/>
		</defs>
		<clipPath id="SVGID_36_">
			<use xlink:href="#SVGID_35_"  style="overflow:visible;"/>
		</clipPath>
		<polygon id="XMLID_9057_" class="st17" points="-279.4,313.9 -283.4,313.9 -284,312.9 -283.4,312 -279.4,312 -279,312.9 		"/>
	</g>
	<g>
		<defs>
			<circle id="SVGID_37_" cx="-281.4" cy="298.6" r="56"/>
		</defs>
		<clipPath id="SVGID_38_">
			<use xlink:href="#SVGID_37_"  style="overflow:visible;"/>
		</clipPath>
		<path id="XMLID_9054_" class="st18" d="M-263.5,357.6c-3,7.6-9.8,11.4-17.8,11.4s-14.8-3.8-17.8-11.4H-263.5z"/>
	</g>
	<g>
		<defs>
			<circle id="SVGID_39_" cx="-281.4" cy="298.6" r="56"/>
		</defs>
		<clipPath id="SVGID_40_">
			<use xlink:href="#SVGID_39_"  style="overflow:visible;"/>
		</clipPath>
		<path id="XMLID_9053_" class="st19" d="M-282.7,442.3c0,0.5,0,0.7-1,0.7c-1.1,0-2.3,0-3.4,0c-0.5,0-1,0-1.5,0c-3,0-7,0-10,0l0,0
			c0-0.5,0-1.8,0.3-2.2c0.4-0.6,1-0.4,1.6-0.4c0.4-0.8,0.7-1.6,1.2-2.2c0.8-1,1.8-1.6,2.9-2.2c0.6-0.4,2.5-0.5,3.2-0.5
			c2.6,0,4.2-0.1,6.8,0"/>
	</g>
	<g>
		<defs>
			<circle id="SVGID_41_" cx="-281.4" cy="298.6" r="56"/>
		</defs>
		<clipPath id="SVGID_42_">
			<use xlink:href="#SVGID_41_"  style="overflow:visible;"/>
		</clipPath>
		<polygon id="XMLID_9051_" class="st20" points="-299.3,443.1 -287.9,443.1 -287.9,443.1 		"/>
	</g>
	<g>
		<defs>
			<circle id="SVGID_43_" cx="-281.4" cy="298.6" r="56"/>
		</defs>
		<clipPath id="SVGID_44_">
			<use xlink:href="#SVGID_43_"  style="overflow:visible;"/>
		</clipPath>
		<path id="XMLID_9050_" class="st21" d="M-282.7,442.3L-282.7,442.3l-3.3-0.1v0.7h2.8C-282.7,442.9-282.7,442.7-282.7,442.3z"/>
	</g>
	<g>
		<defs>
			<circle id="SVGID_45_" cx="-281.4" cy="298.6" r="56"/>
		</defs>
		<clipPath id="SVGID_46_">
			<use xlink:href="#SVGID_45_"  style="overflow:visible;"/>
		</clipPath>
		<path id="XMLID_9048_" class="st22" d="M-279.1,442.3c0,0.5,0,0.7,1,0.7c1.1,0,2.2,0,3.4,0c0.5,0,1,0,1.5,0c3,0,7,0,10,0l0,0
			c0-0.5,0-1.8-0.3-2.2c-0.4-0.6-1-0.4-1.6-0.4c-0.3-0.8-0.7-1.6-1.2-2.2c-0.8-1-1.8-1.6-2.9-2.2c-0.6-0.4-2.5-0.5-3.2-0.5
			c-2.6,0-4.2-0.1-6.8,0"/>
	</g>
	<g>
		<defs>
			<circle id="SVGID_47_" cx="-281.4" cy="298.6" r="56"/>
		</defs>
		<clipPath id="SVGID_48_">
			<use xlink:href="#SVGID_47_"  style="overflow:visible;"/>
		</clipPath>
		<polygon id="XMLID_9047_" class="st23" points="-274.6,443.1 -263.2,443.1 -263.2,443.1 		"/>
	</g>
	<g>
		<defs>
			<circle id="SVGID_49_" cx="-281.4" cy="298.6" r="56"/>
		</defs>
		<clipPath id="SVGID_50_">
			<use xlink:href="#SVGID_49_"  style="overflow:visible;"/>
		</clipPath>
		<path id="XMLID_9011_" class="st24" d="M-279.1,442.3L-279.1,442.3l3.3-0.1v0.7h-2.8C-279.1,443-279.1,442.8-279.1,442.3z"/>
	</g>
	<g>
		<defs>
			<circle id="SVGID_51_" cx="-281.4" cy="298.6" r="56"/>
		</defs>
		<clipPath id="SVGID_52_">
			<use xlink:href="#SVGID_51_"  style="overflow:visible;"/>
		</clipPath>
		<circle id="XMLID_9010_" class="st25" cx="-303.7" cy="378.5" r="6.7"/>
	</g>
	<g>
		<defs>
			<circle id="SVGID_53_" cx="-281.4" cy="298.6" r="56"/>
		</defs>
		<clipPath id="SVGID_54_">
			<use xlink:href="#SVGID_53_"  style="overflow:visible;"/>
		</clipPath>
		<circle id="XMLID_9009_" class="st26" cx="-258.9" cy="376.5" r="6.7"/>
	</g>
	<g>
		<circle id="XMLID_9008_" class="st27" cx="-281.4" cy="298.6" r="56"/>
	</g>
</g>
<path id="XMLID_5442_" class="st28" d="M-288.7,257.6c2.6-1,5.4-0.7,8.1-1.2v0.4c4.5,0.3,9.2,1.3,12.8,4.3c2.8,2,5.7,4.2,7.3,7.4
	c1.9,3.6,3.6,7.6,3.3,11.8c-0.9-0.4-1-1.5-1.3-2.3c-1.2-4.3-3.8-8.1-7.2-11c-1.1-1-2.5-1.6-3.9-2.1c-0.2,0.1-0.7,0.4-1,0.5
	c-0.1,0.5,0,1.4-0.8,1.3c-1.5-0.2-2.7-1.1-4.1-1.6c-1.8,0.3-3.6-0.4-5.4-0.6c0.2,0.5,0.4,1.1,0.6,1.6c-2.6,0.8-5.1-0.9-7.5-1.8
	c-0.1,0.3-0.3,1-0.4,1.3c-1.9,0-3.4-1-5.1-1.6c-2,0.3-3.4,1.8-4.7,3.2c-3.5,3.6-6.2,8.3-6.6,13.4c-0.4-0.8-1-1.6-1-2.5
	c0.4-6.6,3.7-13.3,9.4-17.1C-294,259.1-291.3,258.6-288.7,257.6z"/>
</svg>
