<?xml version="1.0" encoding="utf-8"?>
<!-- Generator: Adobe Illustrator 19.0.0, SVG Export Plug-In . SVG Version: 6.00 Build 0)  -->
<svg version="1.1" id="Capa_1" xmlns="http://www.w3.org/2000/svg" xmlns:xlink="http://www.w3.org/1999/xlink" x="0px" y="0px"
	 viewBox="-351 227.3 139 141" style="enable-background:new -351 227.3 139 141;" xml:space="preserve">
<style type="text/css">
	.st0{fill:#ECECEC;}
	.st1{clip-path:url(#SVGID_2_);fill:#13110C;}
	.st2{clip-path:url(#SVGID_4_);fill:#EFCEAE;}
	.st3{clip-path:url(#SVGID_6_);fill:#EFCEAE;}
	.st4{clip-path:url(#SVGID_8_);fill:#13110C;}
	.st5{clip-path:url(#SVGID_10_);fill:#13110C;}
	.st6{clip-path:url(#SVGID_12_);fill:#EFCEAE;}
	.st7{clip-path:url(#SVGID_14_);fill:#EFCEAE;}
	.st8{clip-path:url(#SVGID_16_);fill:#FFFFFF;}
	.st9{clip-path:url(#SVGID_18_);fill:#13110C;}
	.st10{clip-path:url(#SVGID_20_);fill:#13110C;}
	.st11{clip-path:url(#SVGID_22_);fill:#EA5D64;}
	.st12{clip-path:url(#SVGID_24_);fill:#FFF18B;}
	.st13{clip-path:url(#SVGID_26_);fill:#FFF18B;}
	.st14{clip-path:url(#SVGID_28_);fill:#FFF18B;}
	.st15{clip-path:url(#SVGID_30_);fill:#FFF18B;}
	.st16{clip-path:url(#SVGID_32_);fill:#EFCEAE;}
	.st17{clip-path:url(#SVGID_34_);fill:#EFCEAE;}
	.st18{clip-path:url(#SVGID_36_);fill:#13110C;}
	.st19{clip-path:url(#SVGID_38_);fill:#FBD958;}
	.st20{clip-path:url(#SVGID_40_);fill:#C04217;}
	.st21{clip-path:url(#SVGID_42_);}
	.st22{fill:#EFCEAE;}
	.st23{fill:#F0C286;}
	.st24{clip-path:url(#SVGID_47_);}
	.st25{clip-path:url(#SVGID_48_);}
	.st26{clip-path:url(#SVGID_49_);}
	.st27{clip-path:url(#SVGID_50_);fill:#E02A84;}
	.st28{clip-path:url(#SVGID_50_);fill:#A11954;}
	.st29{clip-path:url(#SVGID_50_);fill:#FFFFFF;}
	.st30{fill:#FFFFFF;}
	.st31{fill:#DDABCF;}
	.st32{fill:#12110B;}
	.st33{fill:#E5E4E4;}
	.st34{clip-path:url(#SVGID_52_);fill:#C04217;}
	.st35{fill:none;stroke:#ECECEC;stroke-miterlimit:10;}
	.st36{clip-path:url(#SVGID_42_);fill:#EA5D64;}
</style>
<g>
	<circle id="XMLID_8952_" class="st0" cx="-280.9" cy="298.6" r="57.1"/>
	<g>
		<g>
			<defs>
				<circle id="SVGID_1_" cx="-280.9" cy="298.6" r="57.1"/>
			</defs>
			<clipPath id="SVGID_2_">
				<use xlink:href="#SVGID_1_"  style="overflow:visible;"/>
			</clipPath>
			<rect id="XMLID_8951_" x="-295" y="277.3" class="st1" width="41.8" height="36.1"/>
		</g>
		<g>
			<defs>
				<circle id="SVGID_3_" cx="-280.9" cy="298.6" r="57.1"/>
			</defs>
			<clipPath id="SVGID_4_">
				<use xlink:href="#SVGID_3_"  style="overflow:visible;"/>
			</clipPath>
			<polygon id="XMLID_8950_" class="st2" points="-272.2,341.9 -264,341.9 -264,416.4 -257.1,421.7 -272.2,421.7 			"/>
		</g>
		<g>
			<defs>
				<circle id="SVGID_5_" cx="-280.9" cy="298.6" r="57.1"/>
			</defs>
			<clipPath id="SVGID_6_">
				<use xlink:href="#SVGID_5_"  style="overflow:visible;"/>
			</clipPath>
			<polygon id="XMLID_8949_" class="st3" points="-276,341.9 -283.4,341.9 -283.4,416.4 -290.3,421.7 -276,421.7 			"/>
		</g>
		<g>
			<defs>
				<circle id="SVGID_7_" cx="-280.9" cy="298.6" r="57.1"/>
			</defs>
			<clipPath id="SVGID_8_">
				<use xlink:href="#SVGID_7_"  style="overflow:visible;"/>
			</clipPath>
			<path id="XMLID_8948_" class="st4" d="M-276,414.5c0.1,0,0.2-0.1,0.3-0.1c0.3,2.8,0.2,5.6,0,8.4c-0.1,0.9-0.9,1-1.5,1.1
				c-0.6-1.2-1.5-2.2-2.5-2.8c-0.3,0-0.6,0.3-0.9,0.5c-1.9,1.1-4,1.9-6.1,2.3c-1.7,0.3-3.4,0.8-5.2,0.5c-0.6-0.5-0.1-1.4,0.2-1.9
				c1-1.4,4.7-4.4,4.1-3.8c2.4,0.4,5.2,0.7,7.5-0.6C-278.5,417.3-277.1,416.2-276,414.5"/>
		</g>
		<g>
			<defs>
				<circle id="SVGID_9_" cx="-280.9" cy="298.6" r="57.1"/>
			</defs>
			<clipPath id="SVGID_10_">
				<use xlink:href="#SVGID_9_"  style="overflow:visible;"/>
			</clipPath>
			<path id="XMLID_8947_" class="st5" d="M-271.5,414.5c-0.1,0-0.2-0.1-0.3-0.1c-0.3,2.8-0.2,5.6,0,8.4c0.1,0.9,0.9,1,1.5,1.1
				c0.6-1.2,1.5-2.2,2.5-2.8c0.3,0,0.6,0.3,0.9,0.5c1.9,1.1,4,1.9,6.1,2.3c1.7,0.3,3.5,0.8,5.2,0.5c0.6-0.5,0.1-1.4-0.2-1.9
				c-1-1.4-4.7-4.4-4.1-3.8c-2.5,0.4-5.2,0.7-7.5-0.6C-268.9,417.3-270.4,416.2-271.5,414.5"/>
		</g>
		<g>
			<defs>
				<circle id="SVGID_11_" cx="-280.9" cy="298.6" r="57.1"/>
			</defs>
			<clipPath id="SVGID_12_">
				<use xlink:href="#SVGID_11_"  style="overflow:visible;"/>
			</clipPath>
			<path id="XMLID_8945_" class="st6" d="M-252,276.2c0-0.5,0.1-1.1,0.1-1.6c0-12-9.8-21.8-21.8-21.8s-21.8,9.8-21.8,21.8
				c0,0.5,0,1.1,0.1,1.6c-1.3,0.2-2.4,1.3-2.4,2.7c0,1.5,1.2,2.8,2.8,2.8c0.2,0,0.5,0,0.7-0.1c2.9,8.6,11,14.8,20.6,14.8
				c9.6,0,17.7-6.2,20.6-14.8c0.2,0.1,0.5,0.1,0.7,0.1c1.5,0,2.8-1.2,2.8-2.8C-249.6,277.5-250.6,276.4-252,276.2"/>
		</g>
		<g>
			<defs>
				<circle id="SVGID_13_" cx="-280.9" cy="298.6" r="57.1"/>
			</defs>
			<clipPath id="SVGID_14_">
				<use xlink:href="#SVGID_13_"  style="overflow:visible;"/>
			</clipPath>
			<path id="XMLID_8933_" class="st7" d="M-268.2,299.8c-0.7-0.1-0.3-0.1-0.3-0.1l0,0l0,0l-1.9-0.1V296c0-2.5-1.2-4.6-2.9-4.6
				c-1.6,0-2.9,2.1-2.9,4.6v3.6c-1.9,0.1-1.9,0.1-1.9,0.1s-0.5,0-1.2,0.1c-3.5,0.5-14,2.8-14,14.8v8.3l0,0c0.4,0,6.3,0.1,6.3-0.1
				c0-0.1,0-0.3,0-0.4c0.1-6.2,2.1-5.3,2.1-5.3h22.3c0,0,2-1.2,2.1,5.2c0,0.1,0,0.3,0,0.4c0,0.2,5.9,0.1,6.3,0.1h-0.9v-8.3
				C-255.1,302.7-264.7,300.3-268.2,299.8z M-273.9,305.4c0.1,0,0.1,0,0.2,0l0,0C-273.8,305.4-273.8,305.4-273.9,305.4z"/>
		</g>
		<g>
			<defs>
				<circle id="SVGID_15_" cx="-280.9" cy="298.6" r="57.1"/>
			</defs>
			<clipPath id="SVGID_16_">
				<use xlink:href="#SVGID_15_"  style="overflow:visible;"/>
			</clipPath>
			<path id="XMLID_8930_" class="st8" d="M-277.3,287.2c0.3,2.5,6.3,4.4,7.4-0.3C-272.4,287-274.8,287.1-277.3,287.2"/>
		</g>
		<g>
			<defs>
				<circle id="SVGID_17_" cx="-280.9" cy="298.6" r="57.1"/>
			</defs>
			<clipPath id="SVGID_18_">
				<use xlink:href="#SVGID_17_"  style="overflow:visible;"/>
			</clipPath>
			<path id="XMLID_8929_" class="st9" d="M-268.1,275.4c1.8-0.2,2.1,2.9,0.2,2.8C-269.6,278.2-269.8,275.5-268.1,275.4"/>
		</g>
		<g>
			<defs>
				<circle id="SVGID_19_" cx="-280.9" cy="298.6" r="57.1"/>
			</defs>
			<clipPath id="SVGID_20_">
				<use xlink:href="#SVGID_19_"  style="overflow:visible;"/>
			</clipPath>
			<path id="XMLID_8927_" class="st10" d="M-279.9,275.4c1.7-0.6,2.6,2.1,0.9,2.6C-280.7,278.8-281.6,275.8-279.9,275.4"/>
		</g>
		<g>
			<defs>
				<circle id="SVGID_21_" cx="-280.9" cy="298.6" r="57.1"/>
			</defs>
			<clipPath id="SVGID_22_">
				<use xlink:href="#SVGID_21_"  style="overflow:visible;"/>
			</clipPath>
			<path id="XMLID_8926_" class="st11" d="M-262.3,331c-0.1-0.2-0.2-13.7-0.2-13.7v-3.2l6.8-6.6c-1.5-3-4-4.8-6.3-5.9
				c-0.1,6-5.3,10.8-11.6,10.8c-6.3,0-11.5-4.8-11.6-10.8c-2.4,1.1-4.8,3-6.3,5.9l6.8,6.6v3.2c0,0-0.1,13.4-0.2,13.6
				c-3,5-9.9,39.4-11.9,48.9h46.6C-252.4,370.4-259.3,335.9-262.3,331"/>
		</g>
		<g>
			<defs>
				<circle id="SVGID_23_" cx="-280.9" cy="298.6" r="57.1"/>
			</defs>
			<clipPath id="SVGID_24_">
				<use xlink:href="#SVGID_23_"  style="overflow:visible;"/>
			</clipPath>
			<path id="XMLID_8918_" class="st12" d="M-273.7,312.3c6.3,0,11.5-4.8,11.6-10.8c-0.9-0.4-1.8-0.8-2.6-1c0,0,0,0.1,0,0.2
				c0,5-4,9-9,9s-9-4-9-9c0-0.1,0-0.1,0-0.2c-0.8,0.3-1.7,0.6-2.6,1C-285.2,307.5-280,312.3-273.7,312.3"/>
		</g>
		<g>
			<defs>
				<circle id="SVGID_25_" cx="-280.9" cy="298.6" r="57.1"/>
			</defs>
			<clipPath id="SVGID_26_">
				<use xlink:href="#SVGID_25_"  style="overflow:visible;"/>
			</clipPath>
			<path id="XMLID_8917_" class="st13" d="M-291.6,307.5c-0.3,0.7-0.6,1.4-0.9,2.2l7.7,7.7v-3.2L-291.6,307.5z"/>
		</g>
		<g>
			<defs>
				<circle id="SVGID_27_" cx="-280.9" cy="298.6" r="57.1"/>
			</defs>
			<clipPath id="SVGID_28_">
				<use xlink:href="#SVGID_27_"  style="overflow:visible;"/>
			</clipPath>
			<path id="XMLID_8910_" class="st14" d="M-262.6,317.3l7.7-7.7c-0.2-0.8-0.5-1.5-0.9-2.2l-6.8,6.6V317.3z"/>
		</g>
		<g>
			<defs>
				<circle id="SVGID_29_" cx="-280.9" cy="298.6" r="57.1"/>
			</defs>
			<clipPath id="SVGID_30_">
				<use xlink:href="#SVGID_29_"  style="overflow:visible;"/>
			</clipPath>
			<path id="XMLID_8906_" class="st15" d="M-249.8,383.7c0,0-0.2-1.9-0.6-3.8H-297c-0.4,1.9-0.6,3.8-0.6,3.8H-249.8z"/>
		</g>
		<g>
			<defs>
				<circle id="SVGID_31_" cx="-280.9" cy="298.6" r="57.1"/>
			</defs>
			<clipPath id="SVGID_32_">
				<use xlink:href="#SVGID_31_"  style="overflow:visible;"/>
			</clipPath>
			<path id="XMLID_8877_" class="st16" d="M-293.1,322.9v18.3c0,2,0,4,0,6v0.3c0,3.1,0.1,4.1,0,7.3c0,0.1,0,1.5,0,1.6
				c0,6.1,7.9,6.6,9.3,2.3c0.9-2.5-0.4-5.3-2.8-6.3l-0.2-0.2c-0.2-1.8-0.1-3.3-0.1-5.1c0-2,0-24.3,0-24.3L-293.1,322.9L-293.1,322.9
				z"/>
		</g>
		<g>
			<defs>
				<circle id="SVGID_33_" cx="-280.9" cy="298.6" r="57.1"/>
			</defs>
			<clipPath id="SVGID_34_">
				<use xlink:href="#SVGID_33_"  style="overflow:visible;"/>
			</clipPath>
			<path id="XMLID_8876_" class="st17" d="M-254,322.9v18.3c0,2,0,4,0,6v0.3c0,3.1,0.4,4.1,0.5,7.3c0,0.1,0.2,1.5,0.2,1.6
				c0,6.1-8.7,6.6-10.4,2.3c-1.1-2.5,0.5-5.3,3.2-6.3l-0.3,0.1c0.2-1.8,0.2-3.5,0.2-5.2c0-2,0.2-24.4,0.2-24.4S-254,322.9-254,322.9
				z"/>
		</g>
		<g>
			<defs>
				<circle id="SVGID_35_" cx="-280.9" cy="298.6" r="57.1"/>
			</defs>
			<clipPath id="SVGID_36_">
				<use xlink:href="#SVGID_35_"  style="overflow:visible;"/>
			</clipPath>
			<path id="XMLID_8611_" class="st18" d="M-252.5,274.6c0.4,0,0.6-0.5,0.7-0.8l-0.1-0.3l0,0c-0.1-5.7-2.3-10.4-5.8-14.2
				c-2.1-2.1-4.6-3.6-7.1-5c-2.7-1.2-5.8-1.9-9-1.9c-12.1,0-21.9,9.9-21.9,22c0,0.3,0,0.7,0,1c-0.2,0-0.3,0.1-0.5,0.1
				c0.1,0.3,0.3,0.5,0.6,0.7c0.8,0.2,1.3-0.8,1.4-1.4c1.1-5.5,4-10.6,8-14.5c4,3.9,8.2,7.9,13.4,10.3c4.4,2,9.1,3.8,13.9,4.1
				C-256.8,274.7-254.6,275.1-252.5,274.6"/>
		</g>
		<g>
			<defs>
				<circle id="SVGID_37_" cx="-280.9" cy="298.6" r="57.1"/>
			</defs>
			<clipPath id="SVGID_38_">
				<use xlink:href="#SVGID_37_"  style="overflow:visible;"/>
			</clipPath>
			<path id="XMLID_8609_" class="st19" d="M-267.8,299.7c0,0.1,0,0.1,0,0.2c0,3.6-2.5,6.4-5.6,6.4s-5.6-2.8-5.6-6.4
				c0-0.1,0-0.1,0-0.2c-3.4,0.5-14,2.2-13.8,14.7c0.1,5.1,0,7.3,0,8.1l0,0c0.4,0,6.2,0.2,6.2,0c0.3-4.8,1.9-5.3,1.9-5.3
				s0.1,13.2-0.1,13.4c-4.5,7.4-4.8,20.3-4.8,20.3h32.3c0,0-0.3-12.9-4.8-20.3c-0.1-0.2-0.2-13.6-0.2-13.6s1.8-0.1,1.7,5.5
				c0,0.2,6.2-0.1,6.6-0.1l0,0c0-0.9,0-3.1,0-8.1C-254,302.6-264.3,300.2-267.8,299.7z"/>
		</g>
		<g>
			<defs>
				<circle id="SVGID_39_" cx="-280.9" cy="298.6" r="57.1"/>
			</defs>
			<clipPath id="SVGID_40_">
				<use xlink:href="#SVGID_39_"  style="overflow:visible;"/>
			</clipPath>
			<path id="XMLID_8607_" class="st20" d="M-313.5,332.9c0,0,6,6.7,18,6.5c12-0.2,17.3-7.7,17.3-7.7s-3.2-13.3-11.6-17.7
				c-8.3-4.3-14.8-1.1-14.8-1.1S-311.4,323.6-313.5,332.9z"/>
		</g>
		<g id="XMLID_8375_">
			<defs>
				<circle id="SVGID_41_" cx="-280.9" cy="298.6" r="57.1"/>
			</defs>
			<clipPath id="SVGID_42_">
				<use xlink:href="#SVGID_41_"  style="overflow:visible;"/>
			</clipPath>
			<g id="XMLID_8379_" class="st21">
				<g id="XMLID_8581_">
					<path id="XMLID_8606_" class="st22" d="M-279,321L-279,321c-0.2-9.5-7.7-16.5-17.1-16.5s-17,7.8-17,17.2c0,0.2,0,0.6,0,0.8
						c-1.1,0.1-1.9,1-2,2.1c-0.1,1.2,0.9,2.3,2.1,2.3c0.2,0,0.4,0,0.6-0.1c2.2,6.9,8.6,12,16.3,12c8,0,14.7-5.5,16.5-12.9
						c0.1,0,0.2,0,0.3,0c1.2,0.1,2.3-1.2,2.3-2.4C-276.8,322.4-277.8,321-279,321z"/>
					<path id="XMLID_8589_" class="st23" d="M-291.2,391.1v-24.5l0,0V366c3.8-1.6,3.4-3.3,3.4-3.3s-8.4,0-12.7,0c-1.2,0-4,0-4,0
						s1,1.8,3.6,3.5c0,0,0.1,1,0.1,2.2v23h-0.2c-1.2,0-2.8,1.7-4,2.9c2.6,0.1,5.2-0.3,7.8-0.3c0-0.7,0-0.6,0-2.5h0.4v-20.4
						c0-0.6,0-1.3,0-1.9v-1.9c0,0,0,0.2,1.9,0v24c0,0,0.5,0,0.4,0c0,0,0,1.9,0,2.9c2.6,0,4.9-0.1,7.4-0.1
						C-288.4,393-289.3,392.1-291.2,391.1z"/>
					<path id="XMLID_8588_" class="st22" d="M-285.9,348.2c0-1.5-3.1-5.1-6.5-6.6c-0.1-0.1-0.7-0.1-0.7-0.1v-4.3
						c0-1.9-1.1-3.5-3-3.5c-0.1,0,0.1,0,0,0s0.4,0,0.3,0c-1.9,0-2.9,1.6-2.9,3.5v4.3c0,0-0.8,0-0.9,0.1c-3.5,1.5-6.7,4.6-6.7,6.6
						v8.9h0.7c0,1.9,0.1,2.5,0.5,3.4c1.3,3.8,4.9,6.7,9.2,6.7c4.3,0,8.3-2.6,9.6-6.3c0.4-0.9,0.9-1.8,0.9-2.9v-7.2
						C-285.5,350.7-285.9,348.3-285.9,348.2z"/>
					<path id="XMLID_8587_" class="st22" d="M-281.7,351.3c0-5.6-6.4-10.2-14.3-10.2s-14.3,4.6-14.3,10.2c0,4.6,0.2,11.4,0,16.1
						c-0.1,2,0.3,3.5,2.2,3.8c1.1,0.2,1.6,0,2.3-0.4c1.1-0.6,1.8-2.1,0.7-3.6c-0.7-0.6-0.7-0.6-1.4-0.8c0-1.3,0-2.5,0-3.8
						c0-0.2,0-0.3,0-0.5c0-2.6,0-5.3,0-7.9c0-0.1,0-0.8,0-2.7l0,0c0-3.8,4.7-7.4,10.4-7.4c5.8,0,10.4,3.6,10.4,7.4l0,0
						c0,3.8,0,9.3,0,10.7c0,0.1,0,0.3,0,0.4c0,1.3,0,2.5,0,3.8c-0.7,0.3-0.7,0.3-1.4,0.8c-1.1,1.5-0.3,3,0.7,3.6
						c0.7,0.4,1.2,0.6,2.3,0.4c1.9-0.4,2.3-1.8,2.2-3.8C-281.9,363.7-281.8,354.8-281.7,351.3z"/>
					<path id="XMLID_8585_" class="st22" d="M-291.2,391.1v-24.5l0,0V366c3.8-1.6,3.4-3.3,3.4-3.3s-8.4,0-12.7,0c-1.2,0-4,0-4,0
						s1,1.8,3.6,3.5c0,0,0.1,1,0.1,2.2v23h-0.2c-1.2,0-2.8,1.7-4,2.9c2.6,0.1,5.2-0.3,7.8-0.3c0-0.7,0-0.6,0-2.5h0.4v-20.4
						c0-0.6,0-1.3,0-1.9v-1.9c0,0,0,0.2,1.9,0v24c0,0,0.5,0,0.4,0c0,0,0,1.9,0,2.9c2.6,0,4.9-0.1,7.4-0.1
						C-288.4,393-289.3,392.1-291.2,391.1z"/>
				</g>
				<g id="XMLID_8456_">
					<g id="XMLID_8573_">
						<defs>
							<path id="SVGID_43_" d="M-304.5,348.7v11.4l-1.2,3.2c0,1-0.3,1.9-0.3,2.9c0.7,0.3,0.6,0.3,1.2,0.8c1.1,1.5,0.3,3-0.8,3.6
								c-0.6,0.4-1.2,0.3-2.2,0.2l-1.7,9h13.5h0.4h13.5l-1.7-9c0,0,0,0.1-0.1,0.1c-1.1,0.2-1.6,0.1-2.3-0.3
								c-1.1-0.6-1.8-2.1-0.7-3.6c0.7-0.6,0.7-0.5,1.4-0.8c0-1.3,0-2.5,0-3.8c0-0.1,0-0.1,0-0.2V360v-15.7c-1.8-1.2-3.3-2.1-4.9-2.5
								c-0.9,4-4.4,4.4-5.3,4.4c-0.9,0-3.8-0.6-4.6-4.6c-1.8,0.4-4,1.5-4,1.5c-0.1,0.2-0.1,0.5-0.1,0.6v4.6
								C-304.5,348.5-304.5,348.6-304.5,348.7z"/>
						</defs>
						<defs>
							<path id="SVGID_44_" d="M-304.5,348.7v11.4l-1.2,3.2c0,1-0.3,1.9-0.3,2.9c0.7,0.3,0.6,0.3,1.2,0.8c1.1,1.5,0.3,3-0.8,3.6
								c-0.6,0.4-1.2,0.3-2.2,0.2l-1.7,9h13.5h0.4h13.5l-1.7-9c0,0,0,0.1-0.1,0.1c-1.1,0.2-1.6,0.1-2.3-0.3
								c-1.1-0.6-1.8-2.1-0.7-3.6c0.7-0.6,0.7-0.5,1.4-0.8c0-1.3,0-2.5,0-3.8c0-0.1,0-0.1,0-0.2V360v-15.7c-1.8-1.2-3.3-2.1-4.9-2.5
								c-0.9,4-4.4,4.4-5.3,4.4c-0.9,0-3.8-0.6-4.6-4.6c-1.8,0.4-4,1.5-4,1.5c-0.1,0.2-0.1,0.5-0.1,0.6v4.6
								C-304.5,348.5-304.5,348.6-304.5,348.7z"/>
						</defs>
						<defs>
							<path id="SVGID_45_" d="M-304.5,348.7v11.4l-1.2,3.2c0,1-0.3,1.9-0.3,2.9c0.7,0.3,0.6,0.3,1.2,0.8c1.1,1.5,0.3,3-0.8,3.6
								c-0.6,0.4-1.2,0.3-2.2,0.2l-1.7,9h13.5h0.4h13.5l-1.7-9c0,0,0,0.1-0.1,0.1c-1.1,0.2-1.6,0.1-2.3-0.3
								c-1.1-0.6-1.8-2.1-0.7-3.6c0.7-0.6,0.7-0.5,1.4-0.8c0-1.3,0-2.5,0-3.8c0-0.1,0-0.1,0-0.2V360v-15.7c-1.8-1.2-3.3-2.1-4.9-2.5
								c-0.9,4-4.4,4.4-5.3,4.4c-0.9,0-3.8-0.6-4.6-4.6c-1.8,0.4-4,1.5-4,1.5c-0.1,0.2-0.1,0.5-0.1,0.6v4.6
								C-304.5,348.5-304.5,348.6-304.5,348.7z"/>
						</defs>
						<defs>
							<path id="SVGID_46_" d="M-304.5,348.7v11.4l-1.2,3.2c0,1-0.3,1.9-0.3,2.9c0.7,0.3,0.6,0.3,1.2,0.8c1.1,1.5,0.3,3-0.8,3.6
								c-0.6,0.4-1.2,0.3-2.2,0.2l-1.7,9h13.5h0.4h13.5l-1.7-9c0,0,0,0.1-0.1,0.1c-1.1,0.2-1.6,0.1-2.3-0.3
								c-1.1-0.6-1.8-2.1-0.7-3.6c0.7-0.6,0.7-0.5,1.4-0.8c0-1.3,0-2.5,0-3.8c0-0.1,0-0.1,0-0.2V360v-15.7c-1.8-1.2-3.3-2.1-4.9-2.5
								c-0.9,4-4.4,4.4-5.3,4.4c-0.9,0-3.8-0.6-4.6-4.6c-1.8,0.4-4,1.5-4,1.5c-0.1,0.2-0.1,0.5-0.1,0.6v4.6
								C-304.5,348.5-304.5,348.6-304.5,348.7z"/>
						</defs>
						<clipPath id="SVGID_47_">
							<use xlink:href="#SVGID_43_"  style="overflow:visible;"/>
						</clipPath>
						<clipPath id="SVGID_48_" class="st24">
							<use xlink:href="#SVGID_44_"  style="overflow:visible;"/>
						</clipPath>
						<clipPath id="SVGID_49_" class="st25">
							<use xlink:href="#SVGID_45_"  style="overflow:visible;"/>
						</clipPath>
						<clipPath id="SVGID_50_" class="st26">
							<use xlink:href="#SVGID_46_"  style="overflow:visible;"/>
						</clipPath>
						<path id="XMLID_8580_" class="st27" d="M-285.5,360.1v-19c0,0-2.1-1-4.8-2c0.3,6.5-4.4,7-5.5,7.1c-1.1,0-5.1-0.6-4.8-7.1
							c-2.7,1-4,2-4,2v19l-5,19.8h13.5h0.4h13.5L-285.5,360.1z"/>
						<rect id="XMLID_8579_" x="-310.2" y="340" class="st28" width="30.4" height="15.2"/>
						<rect id="XMLID_8578_" x="-312.1" y="378" class="st28" width="38" height="5.7"/>
						<path id="XMLID_8577_" class="st29" d="M-288.3,340.4c0,4.1-3.3,7.4-7.4,7.4c-4.1,0-7.4-3.3-7.4-7.4s3.3-7.4,7.4-7.4
							C-291.6,333-288.3,336.3-288.3,340.4z"/>
					</g>
					<path id="XMLID_8502_" class="st30" d="M-302.6,390.5c0.3-0.1,0.6-0.1,1-0.1c0.2,0.5,0.4,1,0.4,1.5c0.1,0.6-0.1,1.2,0,1.7
						c0.6,0.1,1.1,0,1.7,0c0.8,0,1.6,0,2.4,0c0.1,0.2,0.2,0.4,0.1,0.6c-0.4,0.1-0.8,0-1.3,0c-2.1,0-4.2,0-6.3,0
						c-0.2,0-0.3-0.2-0.4-0.4c0.1-0.1,0.1-0.2,0.1-0.3l-0.1-0.1c-0.1-0.6,0-1.2,0.4-1.7C-304.1,391.1-303.4,390.7-302.6,390.5z"/>
					<path id="XMLID_8501_" class="st30" d="M-301.1,390.4c0.2,0,0.3,0,0.5,0c0.3,0.6,0.5,1.4,0.3,2.1c-0.1,0-0.2,0-0.3,0
						C-300.7,391.8-300.8,391-301.1,390.4z"/>
					<path id="XMLID_8499_" class="st30" d="M-291.2,390.4c0.2,0,0.3,0,0.5,0c-0.4,0.6-0.4,1.4-0.5,2.1c-0.1,0-0.2,0-0.3,0
						C-291.7,391.8-291.5,391.1-291.2,390.4z"/>
					<path id="XMLID_8498_" class="st30" d="M-290.2,390.4c0.8-0.1,1.7,0.2,2.3,0.7s1.1,1.2,1.1,2c0,0.2,0.1,0.4-0.1,0.5
						c0,0.1,0.1,0.2,0.1,0.3c-0.1,0.1-0.2,0.2-0.3,0.3c-0.1,0-0.2,0-0.3,0c-2.2,0-4.3,0-6.5,0c-0.3,0-0.6,0-0.9,0
						c-0.1-0.2,0-0.4,0.1-0.6c0.8,0,1.6,0,2.4,0c0.6,0,1.1,0,1.7,0c0-0.2,0-0.5,0-0.7C-290.7,392.1-290.6,391.2-290.2,390.4z"/>
					<path id="XMLID_8496_" class="st30" d="M-298.5,391.4c0.4-0.2,0.9,0.3,0.7,0.7c-0.1,0.4-0.6,0.5-0.8,0.2
						C-298.9,392-298.8,391.6-298.5,391.4z"/>
					<path id="XMLID_8495_" class="st30" d="M-293.6,391.3c0.2-0.1,0.4,0.1,0.5,0.3c0.2,0.3-0.1,0.7-0.4,0.7
						c-0.3,0.1-0.6-0.3-0.6-0.6C-294.1,391.6-293.8,391.4-293.6,391.3z"/>
					<g id="XMLID_8472_">
						<path id="XMLID_8490_" class="st31" d="M-301.6,390.4c0.2,0,0.3,0.4,0.5,0.4c0.4,0.6,0.4,0.5,0.5,2.4c0.1,0,0.2,0,0.3,0
							c0.2-1.9,0-1.8-0.3-2.4c1.2,0,2.4-0.2,3.6-0.2c0.1,0.4,0,0.4,0,0.8c0,0.7,0,1.8,0,1.8h-0.1c-0.8,0-1.6,0.2-2.4,0.2
							c-0.6,0-1.1,0.2-1.7,0.1c-0.1-0.6,0.1-1.1,0-1.7C-301.3,391.3-301.4,390.9-301.6,390.4z M-298.5,391.4
							c-0.3,0.2-0.4,0.7-0.1,0.9c0.3,0.3,0.8,0.1,0.8-0.2C-297.6,391.6-298.1,391.2-298.5,391.4z"/>
					</g>
					<path id="XMLID_8468_" class="st31" d="M-294.8,390.4c1.2,0,2.4,0.4,3.6,0.3c-0.3,0.6-0.5,0.5-0.3,2.4c0.1,0,0.2,0,0.3,0
						c0.1-1.9,0.2-1.8,0.5-2.4c0.2,0,0.3-0.2,0.5-0.2c-0.4,0.8-0.5,1.5-0.4,2.4c0,0.2,0,0.4,0,0.7c-0.6,0.1-1.1,0-1.7,0
						c-0.8,0-1.6,0-2.4,0h-0.1c0-0.7,0-1.3,0-2C-294.8,391.3-294.9,390.8-294.8,390.4z M-293.6,391.3c-0.2,0.1-0.5,0.2-0.5,0.5
						c-0.1,0.3,0.2,0.7,0.6,0.6c0.3,0,0.6-0.4,0.4-0.7C-293.2,391.5-293.4,391.3-293.6,391.3z"/>
					<g id="XMLID_8460_">
						<path id="XMLID_8464_" class="st30" d="M-299,332c0.2,2,5,3.5,5.9-0.2C-295.1,331.9-297,332-299,332"/>
						<path id="XMLID_8463_" class="st32" d="M-291.7,322.7c1.4-0.2,1.7,2.3,0.2,2.2C-292.9,324.9-293,322.7-291.7,322.7"/>
						<path id="XMLID_8461_" class="st32" d="M-301,322.7c1.4-0.5,2,1.7,0.7,2.1C-301.7,325.4-302.4,323-301,322.7"/>
					</g>
					<path id="XMLID_8459_" class="st33" d="M-302.6,390.1c0.3-0.1,0.6-0.1,1-0.1c0.2,0.5,0.4,1,0.4,1.5c0.1,0.6-0.1,1.2,0,1.7
						c0.6,0.1,1.1,0,1.7,0c0.8,0,1.6,0,2.4,0c0.1,0.2,0.2,0.4,0.1,0.6c-0.4,0.1-0.8,0-1.3,0c-2.1,0-4.2,0-6.3,0
						c-0.2,0-0.3-0.2-0.4-0.4c0.1-0.1,0.1-0.2,0.1-0.3l-0.1-0.1c-0.1-0.6,0-1.2,0.4-1.7C-304.1,390.7-303.4,390.3-302.6,390.1z"/>
					<path id="XMLID_8458_" class="st33" d="M-290.2,390c0.8-0.1,1.7,0.2,2.3,0.7s1.1,1.2,1.1,2c0,0.2,0.1,0.4-0.1,0.5
						c0,0.1,0.1,0.2,0.1,0.3c-0.1,0.1-0.2-0.1-0.3,0c-0.1,0-0.2-0.3-0.3-0.3c-2.2,0-4.3,0-6.5,0c-0.3,0-0.6,0.3-0.9,0.3
						c-0.1-0.2,0-0.2,0.1-0.4c0.8,0,1.6,0.1,2.4,0.1c0.6,0,1.1,0.1,1.7,0c0-0.2,0-0.5,0-0.7C-290.7,391.6-290.6,390.8-290.2,390z"/>
				</g>
				<g>
					<defs>
						<circle id="SVGID_51_" cx="-280.9" cy="298.6" r="57.1"/>
					</defs>
					<clipPath id="SVGID_52_">
						<use xlink:href="#SVGID_51_"  style="overflow:visible;"/>
					</clipPath>
					<path id="XMLID_8385_" class="st34" d="M-302.9,305.8c0.9-0.4,1.9-0.7,2.9-1c1.4-0.4,2.9-0.5,4.4-0.5c1,0,2,0.2,3,0.3
						c7.5,1.4,13.5,8.3,13.7,16c-2.2-0.6-4.1-2-5.9-3.5c0.4,1,0.8,2.1,1.1,3.1c-4.5,0.8-8.8-2.1-11.7-5.3c-1.6,1.5-3.2,3.1-5.3,4
						c-2.2,0.9-4.6,0.8-6.9,0.8c0.3-1,0.6-2,1.1-3c-0.9,0.5-1.9,0.9-2.8,1.3c-0.5,0.1-1,0.2-1.5,0.3c-0.7,0-1.5,0-2.2,0.1
						C-312.1,312.9-308,308-302.9,305.8"/>
				</g>
				<g>
					<circle id="XMLID_8382_" class="st35" cx="-280.9" cy="298.6" r="57.1"/>
				</g>
			</g>
			<rect id="XMLID_8378_" x="-260.8" y="321" class="st36" width="7" height="1.9"/>
			<path id="XMLID_8376_" class="st36" d="M-273.4,309.5c4.6,0,8.3-3.7,8.3-8.3c0-0.3,0-0.6,0-0.9c-1.1-0.3-2-0.5-2.7-0.5
				c0,0.1,0,0.1,0,0.2c0,3.6-2.5,6.4-5.6,6.4s-5.6-2.9-5.6-6.5c0-0.1,0-0.1,0-0.2c-0.7,0.1-1.6,0.2-2.7,0.5c0,0.3-0.1,0.6-0.1,1
				C-281.7,305.8-278,309.5-273.4,309.5z"/>
		</g>
	</g>
</g>
</svg>
