<?xml version="1.0" encoding="utf-8"?>
<!-- Generator: Adobe Illustrator 19.0.0, SVG Export Plug-In . SVG Version: 6.00 Build 0)  -->
<svg version="1.1" id="Capa_1" xmlns="http://www.w3.org/2000/svg" xmlns:xlink="http://www.w3.org/1999/xlink" x="0px" y="0px"
	 viewBox="-351 227.3 139 141" style="enable-background:new -351 227.3 139 141;" xml:space="preserve">
<style type="text/css">
	.st0{clip-path:url(#SVGID_2_);fill:#EFCEAE;}
	.st1{clip-path:url(#SVGID_4_);fill:#EFCEAE;}
	.st2{clip-path:url(#SVGID_6_);fill:#9F92AA;}
	.st3{clip-path:url(#SVGID_8_);fill:#9F92AA;}
	.st4{clip-path:url(#SVGID_10_);fill:#745B8D;}
	.st5{clip-path:url(#SVGID_12_);fill:#12110B;}
	.st6{clip-path:url(#SVGID_14_);fill:#12110B;}
	.st7{clip-path:url(#SVGID_16_);fill:#592F12;}
	.st8{clip-path:url(#SVGID_18_);fill:#EFCEAE;}
	.st9{clip-path:url(#SVGID_20_);fill:#EFCEAE;}
	.st10{clip-path:url(#SVGID_22_);fill:#EFCEAE;}
	.st11{clip-path:url(#SVGID_24_);fill:#EFCEAE;}
	.st12{clip-path:url(#SVGID_26_);fill:#28160D;}
	.st13{clip-path:url(#SVGID_28_);fill:#28160D;}
	.st14{clip-path:url(#SVGID_30_);fill:#242F60;}
	.st15{clip-path:url(#SVGID_32_);fill:#242F60;}
	.st16{clip-path:url(#SVGID_34_);fill:#EFCEAE;}
	.st17{clip-path:url(#SVGID_36_);fill:#CE8FBE;}
	.st18{clip-path:url(#SVGID_38_);fill:#CE8FBE;}
	.st19{clip-path:url(#SVGID_40_);fill:#B2579C;}
	.st20{clip-path:url(#SVGID_42_);fill:#CE8FBE;}
	.st21{clip-path:url(#SVGID_44_);fill:#CE8FBE;}
	.st22{clip-path:url(#SVGID_46_);fill:#CE8FBE;}
	.st23{clip-path:url(#SVGID_48_);fill:#242F60;}
	.st24{clip-path:url(#SVGID_50_);fill:#242F60;}
	.st25{clip-path:url(#SVGID_52_);fill:#2B3F83;}
	.st26{clip-path:url(#SVGID_54_);fill:#2B3F83;}
	.st27{clip-path:url(#SVGID_56_);fill:#EFCEAE;}
	.st28{clip-path:url(#SVGID_58_);fill:#FFFFFF;}
	.st29{clip-path:url(#SVGID_60_);fill:#592F12;}
	.st30{fill:#FFFFFF;}
	.st31{clip-path:url(#SVGID_62_);fill:#ECECEC;}
	.st32{clip-path:url(#SVGID_64_);fill:#EFCEAE;}
	.st33{clip-path:url(#SVGID_66_);fill:#EFCEAE;}
	.st34{clip-path:url(#SVGID_68_);fill:#9F92AA;}
	.st35{clip-path:url(#SVGID_70_);fill:#9F92AA;}
	.st36{clip-path:url(#SVGID_72_);fill:#745B8D;}
	.st37{clip-path:url(#SVGID_74_);fill:#12110B;}
	.st38{clip-path:url(#SVGID_76_);fill:#12110B;}
	.st39{clip-path:url(#SVGID_78_);fill:#592F12;}
	.st40{clip-path:url(#SVGID_80_);fill:#EFCEAE;}
	.st41{clip-path:url(#SVGID_82_);fill:#EFCEAE;}
	.st42{clip-path:url(#SVGID_84_);fill:#EFCEAE;}
	.st43{clip-path:url(#SVGID_86_);fill:#EFCEAE;}
	.st44{clip-path:url(#SVGID_88_);fill:#28160D;}
	.st45{clip-path:url(#SVGID_90_);fill:#28160D;}
	.st46{clip-path:url(#SVGID_92_);fill:#EFCEAE;}
	.st47{clip-path:url(#SVGID_94_);fill:#EFCEAE;}
	.st48{clip-path:url(#SVGID_96_);fill:#EFCEAE;}
	.st49{clip-path:url(#SVGID_98_);fill:#CE8FBE;}
	.st50{clip-path:url(#SVGID_100_);fill:#CE8FBE;}
	.st51{clip-path:url(#SVGID_102_);fill:#B2579C;}
	.st52{clip-path:url(#SVGID_104_);fill:#CE8FBE;}
	.st53{clip-path:url(#SVGID_106_);fill:#CE8FBE;}
	.st54{clip-path:url(#SVGID_108_);fill:#CE8FBE;}
	.st55{clip-path:url(#SVGID_110_);fill:#EFCEAE;}
	.st56{clip-path:url(#SVGID_112_);fill:#FFFFFF;}
	.st57{clip-path:url(#SVGID_114_);fill:#592F12;}
	.st58{clip-path:url(#SVGID_116_);fill:#EFCEAE;}
	.st59{clip-path:url(#SVGID_118_);fill:#FFFFFF;}
	.st60{clip-path:url(#SVGID_120_);fill:#D1D1D1;}
	.st61{clip-path:url(#SVGID_122_);fill:#D1D1D1;}
	.st62{clip-path:url(#SVGID_124_);fill:#2B327A;}
	.st63{clip-path:url(#SVGID_126_);fill:#2B327A;}
	.st64{clip-path:url(#SVGID_128_);fill:#EFCEAE;}
	.st65{clip-path:url(#SVGID_130_);fill:#EFCEAE;}
	.st66{clip-path:url(#SVGID_132_);fill:#EFCEAE;}
	.st67{clip-path:url(#SVGID_134_);fill:#28160D;}
	.st68{clip-path:url(#SVGID_136_);fill:#28160D;}
	.st69{clip-path:url(#SVGID_138_);fill:#EB64A0;}
	.st70{clip-path:url(#SVGID_140_);fill:#EB64A0;}
	.st71{clip-path:url(#SVGID_142_);fill:#3C3C3B;}
	.st72{clip-path:url(#SVGID_144_);fill:#3C3C3B;}
	.st73{clip-path:url(#SVGID_146_);fill:#3C3C3B;}
	.st74{clip-path:url(#SVGID_148_);fill:#12110B;}
	.st75{clip-path:url(#SVGID_150_);fill:#494644;}
	.st76{clip-path:url(#SVGID_152_);fill:#494644;}
	.st77{clip-path:url(#SVGID_154_);fill:#12110B;}
	.st78{clip-path:url(#SVGID_156_);fill:#494644;}
	.st79{clip-path:url(#SVGID_158_);fill:#494644;}
	.st80{clip-path:url(#SVGID_160_);fill:#EFCEAE;}
	.st81{clip-path:url(#SVGID_162_);fill:#EFCEAE;}
	.st82{clip-path:url(#SVGID_164_);fill:#3B2314;}
	.st83{clip-path:url(#SVGID_166_);fill:#EB64A0;}
	.st84{clip-path:url(#SVGID_168_);fill:#FFFFFF;}
	.st85{clip-path:url(#SVGID_170_);fill:#FFFFFF;}
	.st86{clip-path:url(#SVGID_172_);fill:#FFFFFF;}
	.st87{fill:none;stroke:#ECECEC;stroke-miterlimit:10;}
</style>
<g id="XMLID_8953_">
	<g>
		<defs>
			<circle id="SVGID_1_" cx="-280.8" cy="298.6" r="56"/>
		</defs>
		<clipPath id="SVGID_2_">
			<use xlink:href="#SVGID_1_"  style="overflow:visible;"/>
		</clipPath>
		<polygon id="XMLID_9006_" class="st0" points="-278,382.3 -266.8,382.3 -266.9,480.4 -257.3,486.8 -278,486.8 		"/>
	</g>
	<g>
		<defs>
			<circle id="SVGID_3_" cx="-280.8" cy="298.6" r="56"/>
		</defs>
		<clipPath id="SVGID_4_">
			<use xlink:href="#SVGID_3_"  style="overflow:visible;"/>
		</clipPath>
		<polygon id="XMLID_9005_" class="st1" points="-283.7,382.3 -293.8,382.3 -293.7,480 -303.3,486.8 -283.7,486.8 		"/>
	</g>
	<g>
		<defs>
			<circle id="SVGID_5_" cx="-280.8" cy="298.6" r="56"/>
		</defs>
		<clipPath id="SVGID_6_">
			<use xlink:href="#SVGID_5_"  style="overflow:visible;"/>
		</clipPath>
		<path id="XMLID_9004_" class="st2" d="M-293.2,397.2v80.1h9.5v-77.9h0.9c0.1,0,0.3,0,0.4,0s0.2,0,0.4,0h3.5c0.1,0,0.2,0,0.3,0
			s0.3,0,0.4,0h-0.2v77.9h11.4v-80.1c1.9-1.2,3.6-3.5,4.9-5.4h-37.2C-297.6,393.7-295.1,396-293.2,397.2z"/>
	</g>
	<g>
		<defs>
			<circle id="SVGID_7_" cx="-280.8" cy="298.6" r="56"/>
		</defs>
		<clipPath id="SVGID_8_">
			<use xlink:href="#SVGID_7_"  style="overflow:visible;"/>
		</clipPath>
		<path id="XMLID_9002_" class="st3" d="M-259.1,380.4H-279l0,0h-22.5c0.2,3.8,0.8,7.6,1.7,9.5h38.9
			C-259.9,388-259.3,384.2-259.1,380.4z"/>
	</g>
	<g>
		<defs>
			<circle id="SVGID_9_" cx="-280.8" cy="298.6" r="56"/>
		</defs>
		<clipPath id="SVGID_10_">
			<use xlink:href="#SVGID_9_"  style="overflow:visible;"/>
		</clipPath>
		<path id="XMLID_9001_" class="st4" d="M-299.7,389.9c0.3,0,0.5,1.9,0.8,1.9h37.2c0.3,0,0.6-1.9,0.8-1.9H-299.7z"/>
	</g>
	<g>
		<defs>
			<circle id="SVGID_11_" cx="-280.8" cy="298.6" r="56"/>
		</defs>
		<clipPath id="SVGID_12_">
			<use xlink:href="#SVGID_11_"  style="overflow:visible;"/>
		</clipPath>
		<path id="XMLID_8999_" class="st5" d="M-283.8,477.7c0.1,0,0.3-0.1,0.4-0.1c0.4,3.8,0.3,7.8,0,11.6c-0.1,1.3-1.3,1.4-2,1.6
			c-0.8-1.7-2-3.1-3.4-3.8c-0.5,0-0.9,0.5-1.3,0.7c-2.7,1.5-5.5,2.7-8.5,3.2c-2.4,0.4-4.8,1.1-7.2,0.7c-0.8-0.7-0.2-2,0.3-2.7
			c1.4-2,7.3-6,6.4-5.1c3.4,0.6,6.5,0.8,9.7-0.9C-287.3,481.5-285.3,480-283.8,477.7z"/>
	</g>
	<g>
		<defs>
			<circle id="SVGID_13_" cx="-280.8" cy="298.6" r="56"/>
		</defs>
		<clipPath id="SVGID_14_">
			<use xlink:href="#SVGID_13_"  style="overflow:visible;"/>
		</clipPath>
		<path id="XMLID_8998_" class="st6" d="M-277.2,477.7c-0.1,0-0.3-0.1-0.4-0.1c-0.4,3.8-0.3,7.8,0,11.6c0.1,1.3,1.3,1.4,2,1.6
			c0.8-1.7,2-3.1,3.5-3.8c0.5,0,0.9,0.5,1.3,0.7c2.7,1.5,5.6,2.7,8.5,3.2c2.4,0.4,4.8,1.1,7.2,0.7c0.8-0.7,0.2-2-0.3-2.7
			c-1.4-2-7.1-6.1-6.3-5.1c-3.4,0.6-6.7,0.9-9.9-0.9C-273.7,481.5-275.7,480-277.2,477.7z"/>
	</g>
	<g>
		<defs>
			<circle id="SVGID_15_" cx="-280.8" cy="298.6" r="56"/>
		</defs>
		<clipPath id="SVGID_16_">
			<use xlink:href="#SVGID_15_"  style="overflow:visible;"/>
		</clipPath>
		<path id="XMLID_8995_" class="st7" d="M-251.2,303.1c1.1-2,3.3-3.6,3.2-6.1c0-1.1-0.7-1.8-1.5-2.4l-1.1-4.7l-2.2-3.3l-6.1-8.2
			l-9.8-2.1l-14.5-3c0,0-8.5,1-9.4,1.1s-4.1,1-5.6,2.2c-0.5,0.4-1.3,1.1-2.1,2v-0.1c-3.1-0.2-6.3,0.9-8.3,3.3
			c-1.2,1.3-1.6,3.2-0.8,4.8c0.4,1.2,1.6,2.8,0.3,4c-1.7,1.6-3.6,3.5-3.1,6.1c0.1,2.2,2.4,3.3,3.6,4.8c-1.2,2.6-4.3,4.1-4.9,7.2
			c-0.4,2.3,1.8,3.6,3.1,5.1c-1.3,1.8-3,3.8-2.6,6.2c0.3,1.8,2.3,2.7,3.2,4.2c-0.4,2.1-2.1,4-1.4,6.3c0.7,2,2.9,2.5,4.6,3.2
			c-0.2,1.8-0.8,3.9,0.5,5.3c1.3,1.4,3.3,1.7,5,2.4c2.2,0.9,4.2-0.8,6.2-1.3c1.4,1.5,2.3,3.9,4.6,4.1c2.1,0.5,3.2-1.5,4.5-2.8
			c1.4,1.6,2.1,4,4.2,4.9c1.7,0.9,4,0.3,5.1-1.3c0.8-1,1.5-2.5,3-2.7c1.8,0.7,2.9,2.6,4.9,2.9c2.1,0.7,3.6-1.3,5.1-2.5
			c1.5,0.2,2.2,2.1,3.9,2c2-0.2,3.5-1.7,5.1-2.7c2-1.3,1.5-3.9,0.9-5.8c1-1,2.3-1.9,2.9-3.3c0.6-1.8-1.1-3-2-4.2
			c1.2-1.3,3.1-2.2,3.4-4.2c0.1-1.8-1.5-2.9-2.6-4c1.4-1.2,3.6-2.2,3.4-4.4c0-1.7-1.8-2.6-2.9-3.7c1.2-1.7,3.3-3,3.4-5.2
			C-248.3,305.3-250,304.2-251.2,303.1"/>
	</g>
	<g>
		<defs>
			<circle id="SVGID_17_" cx="-280.8" cy="298.6" r="56"/>
		</defs>
		<clipPath id="SVGID_18_">
			<use xlink:href="#SVGID_17_"  style="overflow:visible;"/>
		</clipPath>
		<path id="XMLID_8994_" class="st8" d="M-274,315.9c0,0-0.2-0.1-2.1-0.2v-5c0-3.5-1.5-6.4-3.8-6.4c-2.3,0-3.8,2.9-3.8,6.4v5
			c-1.9,0.1-2.7,0.2-2.7,0.2s-0.9,16.6,6.2,16.6C-273.1,332.5-274,315.9-274,315.9z"/>
	</g>
	<g>
		<defs>
			<circle id="SVGID_19_" cx="-280.8" cy="298.6" r="56"/>
		</defs>
		<clipPath id="SVGID_20_">
			<use xlink:href="#SVGID_19_"  style="overflow:visible;"/>
		</clipPath>
		<path id="XMLID_8993_" class="st9" d="M-302.1,288.4c0-11.8,9.7-21.4,21.6-21.4s21.6,9.6,21.6,21.4c0,11.8-9.7,21.4-21.6,21.4
			C-292.5,309.9-302.1,300.3-302.1,288.4z"/>
	</g>
	<g>
		<defs>
			<circle id="SVGID_21_" cx="-280.8" cy="298.6" r="56"/>
		</defs>
		<clipPath id="SVGID_22_">
			<use xlink:href="#SVGID_21_"  style="overflow:visible;"/>
		</clipPath>
		<path id="XMLID_8992_" class="st10" d="M-299.1,291.1c0,1.6-1.3,2.8-2.8,2.8c-1.6,0-2.8-1.3-2.8-2.8c0-1.6,1.3-2.8,2.8-2.8
			C-300.4,288.2-299.1,289.5-299.1,291.1z"/>
	</g>
	<g>
		<defs>
			<circle id="SVGID_23_" cx="-280.8" cy="298.6" r="56"/>
		</defs>
		<clipPath id="SVGID_24_">
			<use xlink:href="#SVGID_23_"  style="overflow:visible;"/>
		</clipPath>
		<path id="XMLID_8991_" class="st11" d="M-256.1,291.1c0,1.6-1.3,2.8-2.8,2.8c-1.6,0-2.8-1.3-2.8-2.8c0-1.6,1.3-2.8,2.8-2.8
			C-257.4,288.2-256.1,289.5-256.1,291.1z"/>
	</g>
	<g>
		<defs>
			<circle id="SVGID_25_" cx="-280.8" cy="298.6" r="56"/>
		</defs>
		<clipPath id="SVGID_26_">
			<use xlink:href="#SVGID_25_"  style="overflow:visible;"/>
		</clipPath>
		<path id="XMLID_8990_" class="st12" d="M-284.2,287.1c0,0.8-0.7,1.5-1.5,1.5c-0.8,0-1.5-0.7-1.5-1.5c0-0.8,0.7-1.5,1.5-1.5
			C-284.9,285.6-284.2,286.3-284.2,287.1"/>
	</g>
	<g>
		<defs>
			<circle id="SVGID_27_" cx="-280.8" cy="298.6" r="56"/>
		</defs>
		<clipPath id="SVGID_28_">
			<use xlink:href="#SVGID_27_"  style="overflow:visible;"/>
		</clipPath>
		<path id="XMLID_8989_" class="st13" d="M-273.9,286.9c0,0.8-0.7,1.5-1.5,1.5c-0.8,0-1.5-0.7-1.5-1.5c0-0.8,0.7-1.5,1.5-1.5
			C-274.6,285.4-273.9,286.1-273.9,286.9"/>
	</g>
	<g>
		<defs>
			<circle id="SVGID_29_" cx="-280.8" cy="298.6" r="56"/>
		</defs>
		<clipPath id="SVGID_30_">
			<use xlink:href="#SVGID_29_"  style="overflow:visible;"/>
		</clipPath>
		<path id="XMLID_8988_" class="st14" d="M-308.3,343l0.7,40.1l8.7-0.2v-43.3c0-7.2,6.4-13.3,15.1-14.6l-3-7.3
			C-306.9,321.4-308.1,328.6-308.3,343z"/>
	</g>
	<g>
		<defs>
			<circle id="SVGID_31_" cx="-280.8" cy="298.6" r="56"/>
		</defs>
		<clipPath id="SVGID_32_">
			<use xlink:href="#SVGID_31_"  style="overflow:visible;"/>
		</clipPath>
		<path id="XMLID_8987_" class="st15" d="M-273.5,316.7l-2.7,6.6c8.9,1.3,14,7.3,14,14.5l0.4,40.7h8.5v-40.6
			C-253.3,326.3-260.3,318.2-273.5,316.7z"/>
	</g>
	<g>
		<defs>
			<circle id="SVGID_33_" cx="-280.8" cy="298.6" r="56"/>
		</defs>
		<clipPath id="SVGID_34_">
			<use xlink:href="#SVGID_33_"  style="overflow:visible;"/>
		</clipPath>
		<path id="XMLID_8986_" class="st16" d="M-254,381c0-3.4-2.8-6.2-6.2-6.2c-3.4,0-6.2,2.8-6.2,6.2s2.8,6.2,6.2,6.2
			C-256.7,387.2-254,384.4-254,381z"/>
	</g>
	<g>
		<defs>
			<circle id="SVGID_35_" cx="-280.8" cy="298.6" r="56"/>
		</defs>
		<clipPath id="SVGID_36_">
			<use xlink:href="#SVGID_35_"  style="overflow:visible;"/>
		</clipPath>
		<path id="XMLID_8983_" class="st17" d="M-302.4,379.5h43.9c-0.1-0.8-0.2-1.7-0.4-2.6H-302C-302.2,377.8-302.3,378.7-302.4,379.5z"
			/>
	</g>
	<g>
		<defs>
			<circle id="SVGID_37_" cx="-280.8" cy="298.6" r="56"/>
		</defs>
		<clipPath id="SVGID_38_">
			<use xlink:href="#SVGID_37_"  style="overflow:visible;"/>
		</clipPath>
		<path id="XMLID_8980_" class="st18" d="M-272,316.2c-0.2,0-0.4-0.1-0.6-0.1c-1-0.1-1.6-0.2-1.6-0.2l-6.3,15l-6.3-15
			c0,0-0.6,0-1.5,0.2c-0.2,0-0.4,0.1-0.7,0.1l8.6,18.2L-272,316.2z"/>
	</g>
	<g>
		<defs>
			<circle id="SVGID_39_" cx="-280.8" cy="298.6" r="56"/>
		</defs>
		<clipPath id="SVGID_40_">
			<use xlink:href="#SVGID_39_"  style="overflow:visible;"/>
		</clipPath>
		<path id="XMLID_8979_" class="st19" d="M-253.5,337.1c0-16.1-13.1-19.9-18.5-20.7l-8.5,18.1l-8.5-18.2
			c-5.4,0.9-18.8,4.9-18.8,20.9c0,4.1,0,7.1-0.1,9h8.9c0.5-7.6,2.9-5.2,2.9-5.2s0.3,17.3,0.1,18.8l0,0c-4.9,8-6,20.5-6.4,26.2h44.4
			c-0.2-1.9-0.4-5.7-1-9.5l0,0c-0.2,0-0.3-1.8-0.5-2.8c-0.1-0.3-0.1-0.6-0.2-0.9c-0.1-0.3-0.1-0.5-0.2-0.7c-0.1-0.6-0.3-1.2-0.4-1.8
			c0-0.1-0.1-0.2-0.1-0.3c-1-3.7-2.3-7.4-4.2-10.4c-0.2-1.4-0.3-18.7-0.3-18.7s2.2-2.4,2.7,5.2h8.7
			C-253.6,344.3-253.5,341.2-253.5,337.1z"/>
	</g>
	<g>
		<defs>
			<circle id="SVGID_41_" cx="-280.8" cy="298.6" r="56"/>
		</defs>
		<clipPath id="SVGID_42_">
			<use xlink:href="#SVGID_41_"  style="overflow:visible;"/>
		</clipPath>
		<path id="XMLID_8972_" class="st20" d="M-302.5,388.3h44.7c0,0,0-1-0.1-2.7h-45.2C-303.2,387.3-302.5,388.3-302.5,388.3z"/>
	</g>
	<g>
		<defs>
			<circle id="SVGID_43_" cx="-280.8" cy="298.6" r="56"/>
		</defs>
		<clipPath id="SVGID_44_">
			<use xlink:href="#SVGID_43_"  style="overflow:visible;"/>
		</clipPath>
		<path id="XMLID_8969_" class="st21" d="M-253.5,348.1v-1.9h-8.7c0.1,0,0.1,1.9,0.1,1.9H-253.5z"/>
	</g>
	<g>
		<defs>
			<circle id="SVGID_45_" cx="-280.8" cy="298.6" r="56"/>
		</defs>
		<clipPath id="SVGID_46_">
			<use xlink:href="#SVGID_45_"  style="overflow:visible;"/>
		</clipPath>
		<path id="XMLID_8966_" class="st22" d="M-307.9,348.6c0,0,8.8,0.5,8.8,0.3c0-1.1,0.1-2.7,0.1-2.7h-8.8
			C-307.9,346.2-307.9,348.1-307.9,348.6z"/>
	</g>
	<g>
		<defs>
			<circle id="SVGID_47_" cx="-280.8" cy="298.6" r="56"/>
		</defs>
		<clipPath id="SVGID_48_">
			<use xlink:href="#SVGID_47_"  style="overflow:visible;"/>
		</clipPath>
		<path id="XMLID_8963_" class="st23" d="M-303.9,388.4h15.5v-72.3c-4.8,0.7-19.4,3.8-19.4,20.8c0,7.1-0.3,10.2-0.3,11.4l0.3,0.1
			c0.5,0,8.6,0.2,8.6-0.1c0-9.3,3.1-7.6,3.1-7.6s0,18.6-0.1,18.9C-302.6,370.1-303.9,388.4-303.9,388.4z"/>
	</g>
	<g>
		<defs>
			<circle id="SVGID_49_" cx="-280.8" cy="298.6" r="56"/>
		</defs>
		<clipPath id="SVGID_50_">
			<use xlink:href="#SVGID_49_"  style="overflow:visible;"/>
		</clipPath>
		<path id="XMLID_8960_" class="st24" d="M-272.6,316.1v72.3l16-0.1c0,0-1.7-18.2-8-28.6c-0.2-0.3-0.3-18.9-0.3-18.9
			s2.8-1.7,2.8,7.6c0,0.2,7.5,0,8,0h0.6c0-1.2,0-4.3,0-11.4C-253.4,320-267.7,316.8-272.6,316.1z"/>
	</g>
	<g>
		<defs>
			<circle id="SVGID_51_" cx="-280.8" cy="298.6" r="56"/>
		</defs>
		<clipPath id="SVGID_52_">
			<use xlink:href="#SVGID_51_"  style="overflow:visible;"/>
		</clipPath>
		<polygon id="XMLID_8959_" class="st25" points="-272.6,316.4 -263.4,322 -269,326.3 -266.8,331.8 -272.5,346 		"/>
	</g>
	<g>
		<defs>
			<circle id="SVGID_53_" cx="-280.8" cy="298.6" r="56"/>
		</defs>
		<clipPath id="SVGID_54_">
			<use xlink:href="#SVGID_53_"  style="overflow:visible;"/>
		</clipPath>
		<polygon id="XMLID_8958_" class="st26" points="-288.4,316.4 -297.6,322 -291.9,326.3 -294.1,331.8 -288.4,346 		"/>
	</g>
	<g>
		<defs>
			<circle id="SVGID_55_" cx="-280.8" cy="298.6" r="56"/>
		</defs>
		<clipPath id="SVGID_56_">
			<use xlink:href="#SVGID_55_"  style="overflow:visible;"/>
		</clipPath>
		<circle id="XMLID_8957_" class="st27" cx="-301.6" cy="382.9" r="6.2"/>
	</g>
	<g>
		<defs>
			<circle id="SVGID_57_" cx="-280.8" cy="298.6" r="56"/>
		</defs>
		<clipPath id="SVGID_58_">
			<use xlink:href="#SVGID_57_"  style="overflow:visible;"/>
		</clipPath>
		<path id="XMLID_8956_" class="st28" d="M-284.6,300.4c0.3,2.8,7,4.9,8.2-0.3C-279.1,300.2-281.9,300.3-284.6,300.4"/>
	</g>
	<g>
		<defs>
			<circle id="SVGID_59_" cx="-280.8" cy="298.6" r="56"/>
		</defs>
		<clipPath id="SVGID_60_">
			<use xlink:href="#SVGID_59_"  style="overflow:visible;"/>
		</clipPath>
		<path id="XMLID_8955_" class="st29" d="M-259.6,266.2c-0.9-0.8-2.1-1.1-3.1-1.7c-0.9-1-1.3-2.5-2.3-3.3c-1.1-0.8-2.6-0.8-3.8-1.2
			c-1-0.8-1.8-2-3.1-2.3c-2.1-0.8-4.2,0.3-6.2,0.8c-1.4-0.3-2.6-1.3-4.1-1.2c-2.7,0-4.8,2.1-7,3.4c-1.4,0.5-3-0.1-4.4,0.6
			c-2.3,0.8-3.9,2.8-4.9,5c-0.8,1.9-2.8,2.6-3.7,4.4c-1,1.8-1.2,3.9-1.1,5.9h-0.1c0.1,1.1,0.3,2.2,0.4,3c0-0.1,0.1-0.2,0.1-0.4
			c1.3,0.2,2.6,0.8,3.9,0.3c2.1-0.8,3.4-3,5.4-4c1.2,0.5,2.4,1.5,3.8,1.1c2.2-0.4,3.6-2.6,5.7-3.2c1.6-0.2,2.1,1.9,3.3,2.7
			c1.8,1.2,3.9,0,5.7,0.6c0.9,0.9,0.9,2.6,2,3.3c1.3,0.9,2.8,0.2,4.2,0.8c0.6,0.7,0.8,1.6,1.4,2.4c0.9,0.8,2.1,0.9,3.1,1.3
			c0.8,0.7,1.3,2.1,2.5,2.2c1,0.2,1.9,0.4,2.7,1.1c0.3-0.1,0.9-0.2,1.2-0.3c0.3,0.4,0.8,0.7,1.1,1.1c1.2-1.1,2.3-2.4,3.4-4.2
			c1-2.8,0.9-5.8,0.7-8.8c-0.3-2.1-2.1-3.4-3.5-4.5C-258,269.9-258.1,267.6-259.6,266.2"/>
	</g>
</g>
<circle id="XMLID_8373_" class="st30" cx="-281.5" cy="299.1" r="57.4"/>
<g id="XMLID_6788_">
	<g>
		<defs>
			<circle id="SVGID_61_" cx="-281.5" cy="299.1" r="57.4"/>
		</defs>
		<clipPath id="SVGID_62_">
			<use xlink:href="#SVGID_61_"  style="overflow:visible;"/>
		</clipPath>
		<circle id="XMLID_8345_" class="st31" cx="-281.5" cy="299.1" r="57.4"/>
	</g>
	<g>
		<defs>
			<circle id="SVGID_63_" cx="-281.5" cy="299.1" r="57.4"/>
		</defs>
		<clipPath id="SVGID_64_">
			<use xlink:href="#SVGID_63_"  style="overflow:visible;"/>
		</clipPath>
		<polygon id="XMLID_8344_" class="st32" points="-255.2,363.3 -247.3,363.3 -247.3,439.3 -240,445 -255.2,445 		"/>
	</g>
	<g>
		<defs>
			<circle id="SVGID_65_" cx="-281.5" cy="299.1" r="57.4"/>
		</defs>
		<clipPath id="SVGID_66_">
			<use xlink:href="#SVGID_65_"  style="overflow:visible;"/>
		</clipPath>
		<polygon id="XMLID_8343_" class="st33" points="-260.9,365.2 -268,365.2 -268,439.9 -275.3,445 -260.9,445 		"/>
	</g>
	<g>
		<defs>
			<circle id="SVGID_67_" cx="-281.5" cy="299.1" r="57.4"/>
		</defs>
		<clipPath id="SVGID_68_">
			<use xlink:href="#SVGID_67_"  style="overflow:visible;"/>
		</clipPath>
		<path id="XMLID_8342_" class="st34" d="M-268.5,375.8v61.6h9.5v-60.8h-0.6c0.1,1.9,0.2,0,0.3,0c0.1,0,0.2,1.9,0.3,0h2.7
			c0.1,1.9,0.1,0,0.2,0s0.2,1.9,0.3,0h0.6v60.8h7.6v-61.6c1.9-0.9,3.2-3,4.2-4.9h-28.5C-270.9,372.8-270.4,374.9-268.5,375.8z"/>
	</g>
	<g>
		<defs>
			<circle id="SVGID_69_" cx="-281.5" cy="299.1" r="57.4"/>
		</defs>
		<clipPath id="SVGID_70_">
			<use xlink:href="#SVGID_69_"  style="overflow:visible;"/>
		</clipPath>
		<path id="XMLID_8340_" class="st35" d="M-241.4,363.3h-15.3l0,0h-17.2c0.1,1.9,0.6,5.7,1.3,7.6h29.8
			C-242,369-241.5,365.2-241.4,363.3z"/>
	</g>
	<g>
		<defs>
			<circle id="SVGID_71_" cx="-281.5" cy="299.1" r="57.4"/>
		</defs>
		<clipPath id="SVGID_72_">
			<use xlink:href="#SVGID_71_"  style="overflow:visible;"/>
		</clipPath>
		<path id="XMLID_8339_" class="st36" d="M-272.6,370.9c0.2,0,0.4,0,0.6,0h28.6c0.2,0,0.4,0,0.6,0H-272.6z"/>
	</g>
	<g>
		<defs>
			<circle id="SVGID_73_" cx="-281.5" cy="299.1" r="57.4"/>
		</defs>
		<clipPath id="SVGID_74_">
			<use xlink:href="#SVGID_73_"  style="overflow:visible;"/>
		</clipPath>
		<path id="XMLID_8338_" class="st37" d="M-260.3,437.5c0.1,0,0.2-0.1,0.3-0.1c0.3,2.9,0.2,6,0,8.9c-0.1,1-1,1.1-1.6,1.2
			c-0.6-1.3-1.6-2.3-2.6-3c-0.4,0-0.7,0.4-1,0.5c-2.1,1.2-4.2,2.1-6.5,2.5c-1.8,0.3-3.7,0.8-5.5,0.5c-0.6-0.6-0.2-1.5,0.2-2.1
			c1.1-1.5,5.6-4.6,4.9-3.9c2.6,0.5,5,0.6,7.4-0.7C-263,440.5-261.5,439.3-260.3,437.5z"/>
	</g>
	<g>
		<defs>
			<circle id="SVGID_75_" cx="-281.5" cy="299.1" r="57.4"/>
		</defs>
		<clipPath id="SVGID_76_">
			<use xlink:href="#SVGID_75_"  style="overflow:visible;"/>
		</clipPath>
		<path id="XMLID_8337_" class="st38" d="M-255.2,437.5c-0.1,0-0.2-0.1-0.3-0.1c-0.3,2.9-0.2,6,0,8.9c0.1,1,1,1.1,1.6,1.2
			c0.6-1.3,1.6-2.3,2.7-3c0.4,0,0.7,0.4,1,0.5c2.1,1.2,4.3,2.1,6.5,2.5c1.8,0.3,3.7,0.8,5.5,0.5c0.6-0.6,0.2-1.5-0.2-2.1
			c-1.1-1.5-5.5-4.7-4.8-3.9c-2.6,0.5-5.1,0.7-7.6-0.7C-252.5,440.5-254.1,439.3-255.2,437.5z"/>
	</g>
	<g>
		<defs>
			<circle id="SVGID_77_" cx="-281.5" cy="299.1" r="57.4"/>
		</defs>
		<clipPath id="SVGID_78_">
			<use xlink:href="#SVGID_77_"  style="overflow:visible;"/>
		</clipPath>
		<path id="XMLID_8336_" class="st39" d="M-235.3,303.5c0.8-1.5,2.6-2.8,2.5-4.7c0-0.8-0.5-1.4-1.1-1.8l-0.8-3.6l-1.7-2.6l-4.7-6.3
			l-7.5-1.6l-11.1-2.3c0,0-6.6,0.8-7.2,0.9c-0.7,0.1-3.1,0.8-4.3,1.7c-0.4,0.3-1,0.9-1.6,1.5v-0.1c-2.4-0.1-4.8,0.7-6.4,2.5
			c-0.9,1-1.2,2.5-0.6,3.7c0.3,1,1.2,2.2,0.3,3.1c-1.3,1.2-2.7,2.7-2.4,4.7c0.1,1.7,1.8,2.5,2.8,3.7c-1,2-3.3,3.2-3.7,5.5
			c-0.3,1.7,1.4,2.8,2.3,3.9c-1,1.4-2.3,2.9-2,4.8c0.3,1.4,1.8,2,2.4,3.2c-0.3,1.6-1.6,3.1-1,4.8c0.5,1.5,2.2,1.9,3.6,2.4
			c-0.1,1.3-0.6,3,0.4,4.1s2.5,1.3,3.8,1.9c1.7,0.7,3.2-0.7,4.8-1c1.1,1.2,1.7,3,3.5,3.1c1.6,0.4,2.5-1.2,3.4-2.2
			c1.1,1.3,1.6,3.1,3.2,3.8c1.3,0.7,3.1,0.2,3.9-1c0.6-0.8,1.2-1.9,2.3-2.1c1.4,0.5,2.2,2,3.7,2.2c1.6,0.5,2.8-1,3.9-1.9
			c1.1,0.1,1.7,1.6,3,1.6c1.5-0.1,2.7-1.3,3.9-2.1c1.5-1,1.2-3,0.7-4.5c0.8-0.8,1.8-1.4,2.2-2.5c0.4-1.3-0.8-2.3-1.6-3.3
			c0.9-1,2.4-1.7,2.6-3.2c0.1-1.4-1.1-2.3-2-3.1c1.1-0.9,2.7-1.7,2.6-3.4c0-1.3-1.4-2-2.2-2.8c0.9-1.3,2.5-2.3,2.6-4
			C-233.1,305.2-234.4,304.4-235.3,303.5"/>
	</g>
	<g>
		<defs>
			<circle id="SVGID_79_" cx="-281.5" cy="299.1" r="57.4"/>
		</defs>
		<clipPath id="SVGID_80_">
			<use xlink:href="#SVGID_79_"  style="overflow:visible;"/>
		</clipPath>
		<path id="XMLID_8335_" class="st40" d="M-253.2,313.4c0,0-0.1-0.1-2-0.1v-3.9c0-2.7-1.1-4.9-2.9-4.9c-1.7,0-2.8,2.2-2.8,4.9v3.9
			c-1.9,0.1-1.8,0.1-1.8,0.1s-0.7,12.7,4.7,12.7C-252.5,326.1-253.2,313.4-253.2,313.4z"/>
	</g>
	<g>
		<defs>
			<circle id="SVGID_81_" cx="-281.5" cy="299.1" r="57.4"/>
		</defs>
		<clipPath id="SVGID_82_">
			<use xlink:href="#SVGID_81_"  style="overflow:visible;"/>
		</clipPath>
		<ellipse id="XMLID_8325_" class="st41" cx="-257.8" cy="292.3" rx="16.6" ry="16.5"/>
	</g>
	<g>
		<defs>
			<circle id="SVGID_83_" cx="-281.5" cy="299.1" r="57.4"/>
		</defs>
		<clipPath id="SVGID_84_">
			<use xlink:href="#SVGID_83_"  style="overflow:visible;"/>
		</clipPath>
		<circle id="XMLID_8324_" class="st42" cx="-274.3" cy="294.3" r="2.2"/>
	</g>
	<g>
		<defs>
			<circle id="SVGID_85_" cx="-281.5" cy="299.1" r="57.4"/>
		</defs>
		<clipPath id="SVGID_86_">
			<use xlink:href="#SVGID_85_"  style="overflow:visible;"/>
		</clipPath>
		<circle id="XMLID_8323_" class="st43" cx="-241.3" cy="294.3" r="2.2"/>
	</g>
	<g>
		<defs>
			<circle id="SVGID_87_" cx="-281.5" cy="299.1" r="57.4"/>
		</defs>
		<clipPath id="SVGID_88_">
			<use xlink:href="#SVGID_87_"  style="overflow:visible;"/>
		</clipPath>
		<path id="XMLID_8261_" class="st44" d="M-260.7,291.2c0,0.6-0.5,1.1-1.1,1.1c-0.6,0-1.1-0.5-1.1-1.1c0-0.6,0.5-1.1,1.1-1.1
			C-261.2,290.1-260.7,290.6-260.7,291.2"/>
	</g>
	<g>
		<defs>
			<circle id="SVGID_89_" cx="-281.5" cy="299.1" r="57.4"/>
		</defs>
		<clipPath id="SVGID_90_">
			<use xlink:href="#SVGID_89_"  style="overflow:visible;"/>
		</clipPath>
		<path id="XMLID_8256_" class="st45" d="M-252.7,291.1c0,0.6-0.5,1.1-1.1,1.1c-0.6,0-1.1-0.5-1.1-1.1c0-0.6,0.5-1.1,1.1-1.1
			C-253.2,290-252.7,290.5-252.7,291.1"/>
	</g>
	<g>
		<defs>
			<circle id="SVGID_91_" cx="-281.5" cy="299.1" r="57.4"/>
		</defs>
		<clipPath id="SVGID_92_">
			<use xlink:href="#SVGID_91_"  style="overflow:visible;"/>
		</clipPath>
		<path id="XMLID_8255_" class="st46" d="M-278.3,333.9l0.3,24.9l5.2-0.1v-26.9c0-4.5,4.2-8.2,9.5-9.1l-1.8-4.6
			C-277.6,320.5-278.2,325-278.3,333.9z"/>
	</g>
	<g>
		<defs>
			<circle id="SVGID_93_" cx="-281.5" cy="299.1" r="57.4"/>
		</defs>
		<clipPath id="SVGID_94_">
			<use xlink:href="#SVGID_93_"  style="overflow:visible;"/>
		</clipPath>
		<path id="XMLID_8253_" class="st47" d="M-250.3,317.3l-1.8,4.1c5.5,0.8,8.7,4.5,8.7,9l0.2,25.4h5.9v-25.3
			C-237.4,323.2-242,318.2-250.3,317.3z"/>
	</g>
	<g>
		<defs>
			<circle id="SVGID_95_" cx="-281.5" cy="299.1" r="57.4"/>
		</defs>
		<clipPath id="SVGID_96_">
			<use xlink:href="#SVGID_95_"  style="overflow:visible;"/>
		</clipPath>
		<circle id="XMLID_8212_" class="st48" cx="-242.1" cy="363.3" r="4.7"/>
	</g>
	<g>
		<defs>
			<circle id="SVGID_97_" cx="-281.5" cy="299.1" r="57.4"/>
		</defs>
		<clipPath id="SVGID_98_">
			<use xlink:href="#SVGID_97_"  style="overflow:visible;"/>
		</clipPath>
		<path id="XMLID_8158_" class="st49" d="M-274.6,362.2h33.7c-0.1-0.6-0.2-1.3-0.3-2h-33.1C-274.4,360.8-274.5,361.5-274.6,362.2z"
			/>
	</g>
	<g>
		<defs>
			<circle id="SVGID_99_" cx="-281.5" cy="299.1" r="57.4"/>
		</defs>
		<clipPath id="SVGID_100_">
			<use xlink:href="#SVGID_99_"  style="overflow:visible;"/>
		</clipPath>
		<path id="XMLID_8151_" class="st50" d="M-251.3,313.6c-0.2,0-0.3,0-0.4-0.1c-0.7-0.1-1.2-0.1-1.2-0.1l-4.9,11.5l-4.9-11.5
			c0,0-0.4,0-1.2,0.1c-0.2,0-0.3,0-0.5,0.1l6.6,14L-251.3,313.6z"/>
	</g>
	<g>
		<defs>
			<circle id="SVGID_101_" cx="-281.5" cy="299.1" r="57.4"/>
		</defs>
		<clipPath id="SVGID_102_">
			<use xlink:href="#SVGID_101_"  style="overflow:visible;"/>
		</clipPath>
		<path id="XMLID_8149_" class="st51" d="M-237.1,329.7c0-12.3-10.1-15.3-14.2-15.9l-6.5,13.9l-6.6-14c-4.1,0.7-14.4,3.8-14.4,16.1
			c0,3.1,0,5,0,6.9h6.8c0.4-5.7,2.3-4,2.3-4s0.2,13.2,0.1,14.4l0,0c-3.7,6.1-4.6,16.2-4.9,20h34.1c-0.1-1.9-0.3-3.8-0.8-7.6l0,0
			c-0.1,0-0.3-1.1-0.4-1.9c-0.1-0.2-0.1-0.3-0.2-0.6c0-0.2-0.1-0.3-0.1-0.5c-0.1-0.5-0.2-0.9-0.3-1.3c0-0.1,0-0.1-0.1-0.2
			c-0.8-2.9-1.8-5.7-3.2-8c-0.1-1.1-0.2-14.3-0.2-14.3s1.7-1.7,2,4h6.7C-237.1,334.8-237.1,332.8-237.1,329.7z"/>
	</g>
	<g>
		<defs>
			<circle id="SVGID_103_" cx="-281.5" cy="299.1" r="57.4"/>
		</defs>
		<clipPath id="SVGID_104_">
			<use xlink:href="#SVGID_103_"  style="overflow:visible;"/>
		</clipPath>
		<path id="XMLID_8124_" class="st52" d="M-274.7,368.9h34.3c0,0,0-0.8-0.1-2.1h-34.6C-275.2,368.1-274.7,368.9-274.7,368.9z"/>
	</g>
	<g>
		<defs>
			<circle id="SVGID_105_" cx="-281.5" cy="299.1" r="57.4"/>
		</defs>
		<clipPath id="SVGID_106_">
			<use xlink:href="#SVGID_105_"  style="overflow:visible;"/>
		</clipPath>
		<path id="XMLID_8123_" class="st53" d="M-237.1,338.6v-1.9h-6.7c0.1,0,0.1,0,0.1,1.9H-237.1z"/>
	</g>
	<g>
		<defs>
			<circle id="SVGID_107_" cx="-281.5" cy="299.1" r="57.4"/>
		</defs>
		<clipPath id="SVGID_108_">
			<use xlink:href="#SVGID_107_"  style="overflow:visible;"/>
		</clipPath>
		<path id="XMLID_8077_" class="st54" d="M-278.8,338.5c0,0,6.7,0.4,6.7,0.2c0-0.8,0-2.1,0.1-2.1h-6.8
			C-278.8,336.7-278.8,338.1-278.8,338.5z"/>
	</g>
	<g>
		<defs>
			<circle id="SVGID_109_" cx="-281.5" cy="299.1" r="57.4"/>
		</defs>
		<clipPath id="SVGID_110_">
			<use xlink:href="#SVGID_109_"  style="overflow:visible;"/>
		</clipPath>
		<circle id="XMLID_8076_" class="st55" cx="-274" cy="364.8" r="4.7"/>
	</g>
	<g>
		<defs>
			<circle id="SVGID_111_" cx="-281.5" cy="299.1" r="57.4"/>
		</defs>
		<clipPath id="SVGID_112_">
			<use xlink:href="#SVGID_111_"  style="overflow:visible;"/>
		</clipPath>
		<path id="XMLID_7021_" class="st56" d="M-261,301.5c0.3,2.1,5.3,3.8,6.3-0.2C-256.8,301.3-258.9,301.4-261,301.5"/>
	</g>
	<g>
		<defs>
			<circle id="SVGID_113_" cx="-281.5" cy="299.1" r="57.4"/>
		</defs>
		<clipPath id="SVGID_114_">
			<use xlink:href="#SVGID_113_"  style="overflow:visible;"/>
		</clipPath>
		<path id="XMLID_7000_" class="st57" d="M-241.7,275.2c-0.7-0.6-1.6-0.9-2.4-1.3c-0.7-0.8-1-1.9-1.8-2.6c-0.9-0.6-2-0.6-2.9-0.9
			c-0.8-0.6-1.4-1.5-2.4-1.8c-1.6-0.6-3.2,0.2-4.8,0.6c-1.1-0.2-2-1-3.1-0.9c-2.1,0-3.7,1.6-5.4,2.6c-1.1,0.4-2.3-0.1-3.3,0.5
			c-1.7,0.6-3,2.2-3.8,3.8c-0.6,1.4-2.1,2-2.9,3.4c-0.7,1.4-0.9,3-0.8,4.6c0,0,0,0-0.1,0c0.1,0.9,0.2,1.7,0.3,2.3
			c0-0.1,0.1-0.2,0.1-0.3c1,0.1,2,0.6,3,0.2c1.6-0.6,2.6-2.3,4.2-3.1c0.9,0.4,1.9,1.1,2.9,0.9c1.7-0.3,2.7-2,4.3-2.5
			c1.2-0.2,1.6,1.5,2.5,2c1.3,0.9,3,0,4.4,0.5c0.7,0.7,0.7,2,1.5,2.5c1,0.7,2.2,0.1,3.2,0.6c0.5,0.5,0.6,1.3,1.1,1.8
			c0.7,0.6,1.6,0.7,2.4,1c0.6,0.6,1,1.6,2,1.7c0.7,0.1,1.5,0.3,2.1,0.8c0.2-0.1,0.7-0.2,0.9-0.2c0.3,0.3,0.6,0.6,0.9,0.9
			c0.9-0.8,1.8-1.9,2.6-3.2c0.8-2.1,0.7-4.5,0.5-6.7c-0.2-1.6-1.6-2.6-2.7-3.5C-240.5,278.1-240.6,276.2-241.7,275.2"/>
	</g>
	<g>
		<defs>
			<circle id="SVGID_115_" cx="-281.5" cy="299.1" r="57.4"/>
		</defs>
		<clipPath id="SVGID_116_">
			<use xlink:href="#SVGID_115_"  style="overflow:visible;"/>
		</clipPath>
		<polygon id="XMLID_6999_" class="st58" points="-303.3,311.5 -307.1,314.1 -310.9,311.5 -310.9,304.4 -303.3,304.4 		"/>
	</g>
	<g>
		<defs>
			<circle id="SVGID_117_" cx="-281.5" cy="299.1" r="57.4"/>
		</defs>
		<clipPath id="SVGID_118_">
			<use xlink:href="#SVGID_117_"  style="overflow:visible;"/>
		</clipPath>
		<path id="XMLID_6998_" class="st59" d="M-298.9,310.2v0.9v3.8l-1.2-2.4c-0.5-1.1-2.4-1.7-3.2-0.8h-0.1c-1.3,1.6-3.1,2.3-3.1,2.3
			s-1.8-0.7-3.1-2.3l0,0c-0.8-0.9-2.5-0.7-3,0.4l-1.4,2.8v-3.6V310c-3.8,2-8.1,6-8.1,10.7c0,6.6,7,12,15.4,12
			c8.4,0,15.6-5.4,15.6-12C-291.2,316.2-295.1,312.3-298.9,310.2z"/>
	</g>
	<g>
		<defs>
			<circle id="SVGID_119_" cx="-281.5" cy="299.1" r="57.4"/>
		</defs>
		<clipPath id="SVGID_120_">
			<use xlink:href="#SVGID_119_"  style="overflow:visible;"/>
		</clipPath>
		<path id="XMLID_6997_" class="st60" d="M-309.3,310.4c-0.1-0.3-0.2-0.6-0.3-0.9l-0.1-0.4l-0.5-2.1c0,0-0.6-1.4-2.1-1.4
			c-1.5-0.1-1.8,1.6-1.8,1.6v3v1.3v3.6l1.4-2.8c0.5-1.1,2.1-1.4,2.9-0.4h0.1c1.3,1.6,3.1,2.3,3.1,2.3l-1.8-2.2
			C-308.7,311.5-309,311-309.3,310.4z"/>
	</g>
	<g>
		<defs>
			<circle id="SVGID_121_" cx="-281.5" cy="299.1" r="57.4"/>
		</defs>
		<clipPath id="SVGID_122_">
			<use xlink:href="#SVGID_121_"  style="overflow:visible;"/>
		</clipPath>
		<path id="XMLID_6996_" class="st61" d="M-300.8,305.6c-1.5,0.1-2,1.4-2,1.4l-0.6,2.1l-0.1,0.4c0,0.3-0.2,0.6-0.3,0.9
			c-0.2,0.6-0.6,1.2-1,1.6l-1.8,2.2c0,0,1.8-0.7,3.1-2.3l0,0c0.8-0.9,2.9-0.3,3.3,0.8l1.2,2.4v-3.8v-0.9v-3.1
			C-298.9,307.1-299.3,305.5-300.8,305.6z"/>
	</g>
	<g>
		<defs>
			<circle id="SVGID_123_" cx="-281.5" cy="299.1" r="57.4"/>
		</defs>
		<clipPath id="SVGID_124_">
			<use xlink:href="#SVGID_123_"  style="overflow:visible;"/>
		</clipPath>
		<polygon id="XMLID_6995_" class="st62" points="-302.9,342.4 -310.1,342.4 -308.1,317.7 -305,317.7 		"/>
	</g>
	<g>
		<defs>
			<circle id="SVGID_125_" cx="-281.5" cy="299.1" r="57.4"/>
		</defs>
		<clipPath id="SVGID_126_">
			<use xlink:href="#SVGID_125_"  style="overflow:visible;"/>
		</clipPath>
		<polygon id="XMLID_6994_" class="st63" points="-302.9,342.4 -310.1,342.4 -306.6,346.2 -306.4,346.2 		"/>
	</g>
	<g>
		<defs>
			<circle id="SVGID_127_" cx="-281.5" cy="299.1" r="57.4"/>
		</defs>
		<clipPath id="SVGID_128_">
			<use xlink:href="#SVGID_127_"  style="overflow:visible;"/>
		</clipPath>
		<ellipse id="XMLID_6993_" class="st64" cx="-307.1" cy="287.4" rx="18.6" ry="18.4"/>
	</g>
	<g>
		<defs>
			<circle id="SVGID_129_" cx="-281.5" cy="299.1" r="57.4"/>
		</defs>
		<clipPath id="SVGID_130_">
			<use xlink:href="#SVGID_129_"  style="overflow:visible;"/>
		</clipPath>
		<circle id="XMLID_6992_" class="st65" cx="-325.5" cy="289.6" r="2.4"/>
	</g>
	<g>
		<defs>
			<circle id="SVGID_131_" cx="-281.5" cy="299.1" r="57.4"/>
		</defs>
		<clipPath id="SVGID_132_">
			<use xlink:href="#SVGID_131_"  style="overflow:visible;"/>
		</clipPath>
		<circle id="XMLID_6991_" class="st66" cx="-288.5" cy="289.6" r="2.4"/>
	</g>
	<g>
		<defs>
			<circle id="SVGID_133_" cx="-281.5" cy="299.1" r="57.4"/>
		</defs>
		<clipPath id="SVGID_134_">
			<use xlink:href="#SVGID_133_"  style="overflow:visible;"/>
		</clipPath>
		<path id="XMLID_6990_" class="st67" d="M-310.3,286.2c0,0.7-0.6,1.3-1.3,1.3c-0.7,0-1.3-0.6-1.3-1.3c0-0.7,0.6-1.3,1.3-1.3
			C-310.8,284.9-310.3,285.5-310.3,286.2"/>
	</g>
	<g>
		<defs>
			<circle id="SVGID_135_" cx="-281.5" cy="299.1" r="57.4"/>
		</defs>
		<clipPath id="SVGID_136_">
			<use xlink:href="#SVGID_135_"  style="overflow:visible;"/>
		</clipPath>
		<path id="XMLID_6989_" class="st68" d="M-301.4,286.1c0,0.7-0.6,1.3-1.3,1.3c-0.7,0-1.3-0.6-1.3-1.3c0-0.7,0.6-1.3,1.3-1.3
			C-301.9,284.8-301.4,285.4-301.4,286.1"/>
	</g>
	<g>
		<defs>
			<circle id="SVGID_137_" cx="-281.5" cy="299.1" r="57.4"/>
		</defs>
		<clipPath id="SVGID_138_">
			<use xlink:href="#SVGID_137_"  style="overflow:visible;"/>
		</clipPath>
		<path id="XMLID_6988_" class="st69" d="M-329.3,328.6v36.6h5.7v-36.6c0-3.4,3.1-10.8,10.5-11.9l0.8-6.7
			C-323.8,311.1-329.3,318.7-329.3,328.6z"/>
	</g>
	<g>
		<defs>
			<circle id="SVGID_139_" cx="-281.5" cy="299.1" r="57.4"/>
		</defs>
		<clipPath id="SVGID_140_">
			<use xlink:href="#SVGID_139_"  style="overflow:visible;"/>
		</clipPath>
		<path id="XMLID_6984_" class="st70" d="M-300.7,309.9l-1.7,6.3c6.9,1.4,11.1,6.5,11.1,12.7v34.4h7.6v-34.4
			C-283.7,318.9-291.1,311.6-300.7,309.9z"/>
	</g>
	<g>
		<defs>
			<circle id="SVGID_141_" cx="-281.5" cy="299.1" r="57.4"/>
		</defs>
		<clipPath id="SVGID_142_">
			<use xlink:href="#SVGID_141_"  style="overflow:visible;"/>
		</clipPath>
		<rect id="XMLID_6980_" x="-316" y="353.8" class="st71" width="5.7" height="62.7"/>
	</g>
	<g>
		<defs>
			<circle id="SVGID_143_" cx="-281.5" cy="299.1" r="57.4"/>
		</defs>
		<clipPath id="SVGID_144_">
			<use xlink:href="#SVGID_143_"  style="overflow:visible;"/>
		</clipPath>
		<rect id="XMLID_6976_" x="-306.5" y="353.8" class="st72" width="5.7" height="62.7"/>
	</g>
	<g>
		<defs>
			<circle id="SVGID_145_" cx="-281.5" cy="299.1" r="57.4"/>
		</defs>
		<clipPath id="SVGID_146_">
			<use xlink:href="#SVGID_145_"  style="overflow:visible;"/>
		</clipPath>
		<path id="XMLID_6973_" class="st73" d="M-292.8,350c-2.4,5.7-7.8,9-14.1,9c-6.3,0-11.8-3.3-14.1-9H-292.8z"/>
	</g>
	<g>
		<defs>
			<circle id="SVGID_147_" cx="-281.5" cy="299.1" r="57.4"/>
		</defs>
		<clipPath id="SVGID_148_">
			<use xlink:href="#SVGID_147_"  style="overflow:visible;"/>
		</clipPath>
		<path id="XMLID_6971_" class="st74" d="M-308,416.8c0,0.4,0,0.2-0.8,0.2c-0.9,0-1.8-0.4-2.7-0.4c-0.4,0-0.8,0-1.2,0
			c-2.4,0-5.6,0.4-8,0.4l0,0c0-0.4,0-1.2,0.2-1.5c0.3-0.5,0.8-0.2,1.2-0.2c0.3-0.6,0.5-1.2,1-1.7c0.6-0.8,1.4-1.3,2.3-1.7
			c0.5-0.3,2-0.4,2.5-0.4c2.1,0,3.3,0,5.4,0"/>
	</g>
	<g>
		<defs>
			<circle id="SVGID_149_" cx="-281.5" cy="299.1" r="57.4"/>
		</defs>
		<clipPath id="SVGID_150_">
			<use xlink:href="#SVGID_149_"  style="overflow:visible;"/>
		</clipPath>
		<polygon id="XMLID_6970_" class="st75" points="-319.8,416.5 -312.2,416.5 -312.2,416.5 		"/>
	</g>
	<g>
		<defs>
			<circle id="SVGID_151_" cx="-281.5" cy="299.1" r="57.4"/>
		</defs>
		<clipPath id="SVGID_152_">
			<use xlink:href="#SVGID_151_"  style="overflow:visible;"/>
		</clipPath>
		<path id="XMLID_6968_" class="st76" d="M-308,416.8L-308,416.8h-2.6v0.6h2.3C-308.1,417.3-308,417.1-308,416.8z"/>
	</g>
	<g>
		<defs>
			<circle id="SVGID_153_" cx="-281.5" cy="299.1" r="57.4"/>
		</defs>
		<clipPath id="SVGID_154_">
			<use xlink:href="#SVGID_153_"  style="overflow:visible;"/>
		</clipPath>
		<path id="XMLID_6967_" class="st77" d="M-305.2,416.8c0,0.4,0,0.6,0.8,0.6c0.9,0,1.8,0,2.7,0c0.4,0,0.8,0,1.2,0c2.4,0,5.6,0,8,0
			l0,0c0-0.4,0-1.4-0.2-1.7c-0.3-0.5-0.8-0.3-1.2-0.3c-0.3-0.6-0.5-1.2-1-1.7c-0.6-0.8-1.4-1.3-2.3-1.7c-0.5-0.3-2-0.4-2.5-0.4
			c-2.1,0-3.3,0-5.4,0"/>
	</g>
	<g>
		<defs>
			<circle id="SVGID_155_" cx="-281.5" cy="299.1" r="57.4"/>
		</defs>
		<clipPath id="SVGID_156_">
			<use xlink:href="#SVGID_155_"  style="overflow:visible;"/>
		</clipPath>
		<polygon id="XMLID_6965_" class="st78" points="-300.8,416.5 -293.2,416.5 -293.2,416.5 		"/>
	</g>
	<g>
		<defs>
			<circle id="SVGID_157_" cx="-281.5" cy="299.1" r="57.4"/>
		</defs>
		<clipPath id="SVGID_158_">
			<use xlink:href="#SVGID_157_"  style="overflow:visible;"/>
		</clipPath>
		<path id="XMLID_6964_" class="st79" d="M-305.2,416.8L-305.2,416.8h2.6v0.6h-2.3C-305.2,417.3-305.2,417.1-305.2,416.8z"/>
	</g>
	<g>
		<defs>
			<circle id="SVGID_159_" cx="-281.5" cy="299.1" r="57.4"/>
		</defs>
		<clipPath id="SVGID_160_">
			<use xlink:href="#SVGID_159_"  style="overflow:visible;"/>
		</clipPath>
		<circle id="XMLID_6848_" class="st80" cx="-324.7" cy="366.1" r="5.3"/>
	</g>
	<g>
		<defs>
			<circle id="SVGID_161_" cx="-281.5" cy="299.1" r="57.4"/>
		</defs>
		<clipPath id="SVGID_162_">
			<use xlink:href="#SVGID_161_"  style="overflow:visible;"/>
		</clipPath>
		<circle id="XMLID_6847_" class="st81" cx="-289.1" cy="364.5" r="5.3"/>
	</g>
	<g>
		<defs>
			<circle id="SVGID_163_" cx="-281.5" cy="299.1" r="57.4"/>
		</defs>
		<clipPath id="SVGID_164_">
			<use xlink:href="#SVGID_163_"  style="overflow:visible;"/>
		</clipPath>
		<path id="XMLID_6846_" class="st82" d="M-316.7,266.9c2.9-1.5,6.1-1.7,9.3-2.1c3.6,0.3,7.3,0.7,10.7,2.3c5.4,3,9.4,8.7,10.2,15
			c-0.2,2-0.7,4.1-1.5,6c-0.4,1-1.5,0.7-2.3,0.5c0.5-1.8,0.8-3.6,1.1-5.5c-5.6-1-10.9-3.4-16-5.9c0.3,1.5,0.9,3,1.4,4.5
			c-0.1,0.1-0.3,0.3-0.4,0.4c-5-2.4-10.5-4.8-14-9.5c-0.5,2.2-2.3,3.3-3.4,5.2c-1.6,2.8-1.5,7.5-1,10.6c-0.5,0.7-1.8-0.1-2.4-0.3
			c-0.6-1.1-0.5-1.7-0.8-2.9c-0.6-0.2,0.5-0.5-0.2-0.4c-1.2-4.3,0.3-9.1,3-12.5C-321.2,270.3-319.3,268.1-316.7,266.9z"/>
	</g>
	<g>
		<defs>
			<circle id="SVGID_165_" cx="-281.5" cy="299.1" r="57.4"/>
		</defs>
		<clipPath id="SVGID_166_">
			<use xlink:href="#SVGID_165_"  style="overflow:visible;"/>
		</clipPath>
		<path id="XMLID_6845_" class="st83" d="M-292.4,315.5c-2-2-4.6-3.5-8.4-4.4v3.8l-0.7-2.8c-0.1-0.2,0.1-0.3-0.1-0.4
			c-1,1.9-2.9,5.5-5.2,5.5c-2.4,0-4.4-3.8-5.4-5.8c-0.3,0.2-0.6,0.4-0.7,0.8l-1.2,2.8v-3.6c-3.8,1.1-5.7,2.8-8.1,5
			c0,0,0,27.2,0,27.7c0,2.2,0.5,4,1.3,5.9h27.9c0.8-1.9,1-3.7,1-5.9C-291.9,343.1-292.4,315.5-292.4,315.5z"/>
	</g>
	<g>
		<defs>
			<circle id="SVGID_167_" cx="-281.5" cy="299.1" r="57.4"/>
		</defs>
		<clipPath id="SVGID_168_">
			<use xlink:href="#SVGID_167_"  style="overflow:visible;"/>
		</clipPath>
		<path id="XMLID_6844_" class="st84" d="M-309.3,310.4c-0.1-0.3-0.2-0.6-0.3-0.9l-0.1-0.4l-0.5-2.1c0,0-0.6-1.4-2.1-1.4
			c-1.5-0.1-1.8,1.6-1.8,1.6v3v1.3v3.6l1.4-2.8c0.5-1.1,2.1-1.4,2.9-0.4h0.1c1.3,1.6,3.1,2.3,3.1,2.3l-1.8-2.2
			C-308.7,311.5-309,311-309.3,310.4z"/>
	</g>
	<g>
		<defs>
			<circle id="SVGID_169_" cx="-281.5" cy="299.1" r="57.4"/>
		</defs>
		<clipPath id="SVGID_170_">
			<use xlink:href="#SVGID_169_"  style="overflow:visible;"/>
		</clipPath>
		<path id="XMLID_6843_" class="st85" d="M-300.8,305.6c-1.5,0.1-2,1.4-2,1.4l-0.6,2.1l-0.1,0.4c0,0.3-0.2,0.6-0.3,0.9
			c-0.2,0.6-0.6,1.2-1,1.6l-1.8,2.2c0,0,1.8-0.7,3.1-2.3l0,0c0.8-0.9,2.9-0.3,3.3,0.8l1.2,2.4v-3.8v-0.9v-3.1
			C-298.9,307.1-299.3,305.5-300.8,305.6z"/>
	</g>
	<g>
		<defs>
			<circle id="SVGID_171_" cx="-281.5" cy="299.1" r="57.4"/>
		</defs>
		<clipPath id="SVGID_172_">
			<use xlink:href="#SVGID_171_"  style="overflow:visible;"/>
		</clipPath>
		<path id="XMLID_6842_" class="st86" d="M-309.7,298.3c0.2,1.8,4.4,3.1,5.2-0.2C-306.2,298.1-307.9,298.2-309.7,298.3"/>
	</g>
	<g>
		<circle id="XMLID_6795_" class="st87" cx="-281.5" cy="299.1" r="57.4"/>
	</g>
</g>
</svg>
