<?xml version="1.0" encoding="utf-8"?>
<!-- Generator: Adobe Illustrator 16.0.0, SVG Export Plug-In . SVG Version: 6.00 Build 0)  -->
<!DOCTYPE svg PUBLIC "-//W3C//DTD SVG 1.1//EN" "http://www.w3.org/Graphics/SVG/1.1/DTD/svg11.dtd">
<svg version="1.1" id="Layer_1" xmlns="http://www.w3.org/2000/svg" xmlns:xlink="http://www.w3.org/1999/xlink" x="0px" y="0px"
	 width="45px" height="45px" viewBox="0 0 45 45" enable-background="new 0 0 45 45" xml:space="preserve">
<line fill="#3CB5B1" stroke="#FFFFFF" stroke-width="1.2661" stroke-linecap="round" stroke-linejoin="round" stroke-miterlimit="10" x1="18.207" y1="40.263" x2="27.191" y2="38.59"/>
<line fill="#3CB5B1" stroke="#FFFFFF" stroke-width="1.2661" stroke-linecap="round" stroke-linejoin="round" stroke-miterlimit="10" x1="18.207" y1="37.958" x2="27.191" y2="36.287"/>
<line fill="#3CB5B1" stroke="#FFFFFF" stroke-width="1.2661" stroke-linecap="round" stroke-linejoin="round" stroke-miterlimit="10" x1="18.207" y1="35.654" x2="27.191" y2="33.982"/>
<path fill="none" stroke="#FFFFFF" stroke-width="2" stroke-linecap="round" stroke-linejoin="round" stroke-miterlimit="10" d="
	M34.927,15.778c0-6.714-5.499-12.158-12.215-12.158c-6.715,0-12.047,5.444-12.047,12.158c0,5.014,3.27,9.214,6.603,13.736
	c0.927,1.257,0.877,5.613,0.877,5.613h9.535c0,0,0.041-4.334,0.921-5.62C31.402,25.417,34.927,20.788,34.927,15.778z"/>
<path fill="none" stroke="#FFFFFF" stroke-miterlimit="10" d="M22.869,27.399c0,0,1.604-7.818,2.296-10.386
	c0.166-0.604,0.558-2.724,1.917-2.043c1.362,0.681-1.319,4.512-3.874,2.639c-2.553-1.873-1.581-4.341-0.486-4.341
	c1.09,0,2.064,2.468-0.491,4.341c-2.554,1.874-5.05-1.958-3.688-2.639c1.362-0.681,1.568,1.414,1.73,2.021
	c0.689,2.571,2.298,10.397,2.298,10.397"/>
</svg>
