<?xml version="1.0" encoding="utf-8"?>
<!-- Generator: Adobe Illustrator 16.0.0, SVG Export Plug-In . SVG Version: 6.00 Build 0)  -->
<!DOCTYPE svg PUBLIC "-//W3C//DTD SVG 1.1//EN" "http://www.w3.org/Graphics/SVG/1.1/DTD/svg11.dtd">
<svg version="1.1" id="Capa_1" xmlns="http://www.w3.org/2000/svg" xmlns:xlink="http://www.w3.org/1999/xlink" x="0px" y="0px"
	 width="45px" height="45px" viewBox="0 0 45 45" enable-background="new 0 0 45 45" xml:space="preserve">
<g>
	<path fill="#FFFFFF" d="M29.322,13.396c0-3.34-2.729-6.069-6.068-6.069c-3.34,0-6.069,2.729-6.069,6.069h3.031
		c0-1.667,1.365-3.031,3.031-3.031s3.031,1.364,3.031,3.031c0,1.666-1.365,3.031-3.031,3.031h-18.2v3.031h18.208
		C26.594,19.474,29.322,16.736,29.322,13.396L29.322,13.396z M29.322,13.396"/>
	<path fill="#FFFFFF" d="M36.908,13.396c-3.34,0-6.07,2.729-6.07,6.069h3.039c0-1.666,1.365-3.03,3.031-3.03s3.029,1.365,3.029,3.03
		c0,1.667-1.355,3.039-3.029,3.039H2.015v3.032h34.901c3.34,0,6.068-2.73,6.068-6.07C42.984,16.125,40.248,13.396,36.908,13.396
		L36.908,13.396z M36.908,13.396"/>
	<path fill="#FFFFFF" d="M32.361,28.572H11.115v3.031h21.246c0.912,0,1.516,0.604,1.516,1.516s-0.604,1.516-1.516,1.516
		s-1.516-0.604-1.516-1.516h-3.031c0,2.428,1.977,4.555,4.555,4.555s4.555-1.977,4.555-4.555S34.939,28.572,32.361,28.572
		L32.361,28.572z M32.361,28.572"/>
</g>
</svg>
